<svg width="149" height="225" viewBox="0 0 149 225" fill="none" xmlns="http://www.w3.org/2000/svg">
<path d="M4.85018 46.4978C3.53206 40.8378 4.05931 34.2508 7.96094 29.9082C5.90467 32.6894 5.37743 36.4952 5.16653 39.9595C5.00836 42.1064 4.90291 44.3021 4.85018 46.4978Z" fill="black"/>
<path d="M2.74141 145.499C4.11226 140.229 5.43038 134.911 6.80123 129.641C9.59565 118.809 12.3901 107.782 11.8101 96.6574C11.2829 85.9229 7.64483 75.53 5.11403 64.9908C2.58324 54.5003 1.15966 43.2779 4.95586 33.129C7.43393 26.4444 12.0737 20.5892 17.0299 15.1732C23.7787 7.85431 32.2147 0.730547 42.6015 0.0474465C52.0392 -0.538068 60.8443 4.39002 68.4367 9.61085C90.5285 24.883 111.618 47.1326 109.562 74.2614C107.875 95.7791 95.9591 115.491 95.0628 137.155C95.4846 135.643 95.8537 134.13 96.2755 132.618C95.0101 143.303 92.3211 153.843 88.2086 163.943C87.5231 165.553 86.785 167.261 85.3614 168.383C84.0433 169.408 82.3034 169.798 80.6162 170.091C62.3733 173.555 43.076 172.335 25.5713 166.48C19.1389 164.333 12.9173 161.601 6.74851 158.868C5.00859 158.088 -0.000283741 154.331 -0.000283741 154.331C-0.000283741 154.331 1.42329 151.208 2.00327 148.915C2.10872 147.792 2.42506 146.67 2.74141 145.499Z" fill="black"/>
<path d="M58.1539 173.994C58.4175 174.433 88.5234 188.144 88.5234 188.144C88.5234 188.144 77.2403 168.871 69.2788 148.963C73.0223 147.792 76.7658 146.67 80.4565 145.499C84.6745 144.182 88.8925 142.864 93.1632 141.547C94.4813 143.889 96.9594 148.183 99.4375 153.55C100.914 156.721 102.39 160.722 103.761 163.748C105.606 167.846 107.135 171.408 107.873 173.262C111.775 183.167 122.32 206.49 120.791 216.249C119.684 223.275 108.243 225.666 103.128 223.031C93.8486 218.152 87.0998 213.858 74.0241 203.66C68.9625 199.708 64.2173 195.561 59.3138 191.462C57.8903 190.291 56.5194 189.12 55.0959 187.9C54.4104 187.315 53.725 186.778 53.0396 186.192C52.5651 185.753 48.558 183.801 48.1889 183.46C49.9288 180.386 50.9306 176.385 53.3559 173.506C53.4087 173.555 57.2049 172.482 58.1539 173.994Z" fill="#D69377"/>
<path d="M87.9434 187.949C87.9434 187.949 94.9031 190.877 99.0684 195.805" stroke="#AC523F" stroke-width="0.635571" stroke-miterlimit="10"/>
<path d="M148.314 61.1368C148.314 61.1368 147.471 59.7218 140.828 60.5025C134.184 61.2832 107.822 78.1655 107.822 78.1655C107.822 78.1655 112.62 95.5846 98.1204 98.9513C87.5754 101.391 81.9866 98.6585 81.9866 98.6585C81.9866 98.6585 64.3237 119.005 62.9001 127.3C62.9001 127.3 148.051 182.436 134.237 176.434L148.367 176.581L148.314 61.1368Z" fill="#6751EE"/>
<path d="M64.2184 123.543C64.0075 124.128 60.6859 127.739 63.9548 143.938C66.9074 158.625 79.9304 173.507 79.9304 173.507L105.818 151.94L64.2184 123.543Z" fill="#6751EE"/>
<path d="M77.7168 135.107C77.8222 135.254 77.9804 135.351 78.1386 135.449L79.3512 136.425C80.4057 137.254 81.9347 138.425 83.8856 139.84C87.7345 142.67 93.1124 146.525 99.0703 150.721C105.028 154.917 110.512 158.674 114.413 161.407L119.106 164.578L120.424 165.408C120.582 165.505 120.74 165.603 120.898 165.701C120.793 165.554 120.635 165.457 120.477 165.359L119.211 164.432L114.571 161.163L99.2812 150.428C93.3233 146.232 87.9454 142.426 84.0437 139.645L79.4567 136.327L78.244 135.449C78.0331 135.303 77.8749 135.205 77.7168 135.107Z" fill="#503FAD"/>
<path d="M38.5408 164.235C34.2701 165.894 36.4318 168.968 36.4318 168.968C31.7921 169.846 34.7974 173.847 34.7974 173.847C29.9994 174.14 33.3738 178.141 34.9556 178.727L48.6113 183.508L58.998 174.677L54.7801 169.554C53.831 168.578 52.4602 167.504 50.773 166.333C43.6551 161.259 31.6339 154.916 28.5231 153.94C24.6742 152.769 25.5178 156.038 25.5178 156.038L38.5408 164.235Z" fill="#D69377"/>
<path d="M42.3373 172.433C42.4955 171.847 42.9173 171.311 43.4973 170.969C45.5535 170.091 47.6625 169.359 49.7715 168.578C49.8242 168.676 49.8242 168.773 49.877 168.871L47.3462 169.749L45.4481 170.383L44.499 170.725C44.1827 170.823 43.8663 170.92 43.6027 171.067C43.0227 171.359 42.6009 171.847 42.4428 172.433C42.2319 172.969 42.2846 173.604 42.6009 174.092C42.9173 174.58 43.6554 174.775 44.2881 174.726C44.9736 174.726 45.6063 174.58 46.2389 174.336C45.6063 174.58 44.9736 174.726 44.2881 174.726C43.6554 174.726 42.9173 174.58 42.5482 174.092C42.2319 173.604 42.1791 172.969 42.3373 172.433Z" fill="#AC523F"/>
<path d="M36.2749 168.919C37.5403 169.748 38.8584 170.48 40.1765 171.261C41.4947 171.993 42.8128 172.725 44.2363 173.408C42.9709 172.578 41.6528 171.847 40.3347 171.066C39.0166 170.334 37.6985 169.602 36.2749 168.919Z" fill="#AC523F"/>
<path d="M34.8508 173.799C35.9581 174.189 37.0653 174.531 38.2252 174.823C39.3324 175.116 40.4924 175.409 41.6523 175.604C40.5451 175.214 39.4379 174.872 38.2779 174.58C37.118 174.287 36.0108 174.043 34.8508 173.799Z" fill="#AC523F"/>
<path d="M38.2761 164.089C38.8561 164.723 39.4888 165.309 40.1742 165.894C40.8596 166.48 41.4923 167.016 42.2305 167.504C41.6505 166.87 41.0178 166.285 40.3324 165.699C39.6997 165.162 39.0143 164.577 38.2761 164.089Z" fill="#AC523F"/>
<path d="M43.9201 174.726C44.6056 174.726 45.1855 174.189 45.1855 173.555V172.384C45.1855 171.75 44.6056 171.213 43.9201 171.213C43.2347 171.213 42.6547 171.75 42.6547 172.384V173.555C42.6547 174.189 43.2347 174.726 43.9201 174.726Z" fill="#D69377"/>
<path d="M61.6875 135.105C61.6875 135.105 60.633 150.817 56.4677 159.599C56.5204 159.599 57.6277 149.548 61.6875 135.105Z" fill="#231F20"/>
<path d="M46.1855 114.321C46.1855 114.321 45.1311 130.033 40.9658 138.815C40.9658 138.815 42.1258 128.764 46.1855 114.321Z" fill="#231F20"/>
<path d="M65.4297 87.5332C65.4297 87.5332 58.47 107.099 56.9937 115.882C56.0974 121.2 54.5684 139.302 52.0903 144.328C52.0903 144.328 56.7301 132.471 58.5227 119.541C60.2626 106.611 61.528 102.659 65.4297 87.5332Z" fill="#231F20"/>
<path d="M49.9844 62.5508C49.9844 62.5508 43.0247 82.1167 41.5484 90.8994C40.6521 96.2179 39.1231 114.32 36.645 119.346C36.645 119.346 41.2848 107.489 43.0774 94.5589C44.8173 81.58 46.0827 77.6766 49.9844 62.5508Z" fill="#231F20"/>
<path d="M26.3086 96.0723C26.3086 96.0723 18.6635 115.492 17.3981 124.323C16.66 129.642 16.08 147.988 13.1802 152.916C13.1802 152.916 18.3472 141.157 19.718 128.178C21.0361 115.101 22.407 111.198 26.3086 96.0723Z" fill="#231F20"/>
<path d="M69.5952 132.276C66.4844 127.592 66.2735 122.079 68.4879 117.541C68.5934 117.199 68.6988 116.906 68.857 116.565L87.3107 82.6539L123.006 70.6996C123.533 70.5044 124.113 70.3093 124.64 70.1629H124.693H124.745C129.596 68.8455 135.08 69.5774 139.614 72.6513L143.094 75.2373L72.1787 135.936L69.5952 132.276Z" fill="#6751EE"/>
<path d="M108.612 75.3828L86.837 82.7993L79.5082 97.486C79.5082 97.486 78.5592 111.099 94.1657 99.8768C113.674 85.8733 108.612 75.3828 108.612 75.3828Z" fill="#D49176"/>
<path d="M106.873 80.654C106.03 82.2641 104.923 83.8255 103.815 85.2893C101.495 88.4608 98.9647 91.2908 95.8539 93.828C95.4321 94.1696 94.9576 94.5599 94.4303 94.9991C92.585 96.1213 90.5287 96.9996 88.4724 97.7803C86.3107 98.6097 84.149 99.1953 81.8818 99.3416C81.1437 99.3416 80.4582 99.2928 79.7201 99.1952C79.6674 99.1952 79.6674 99.1952 79.6146 99.1952C79.5619 99.1952 79.5619 99.1952 79.5092 99.1952C79.4565 99.1952 79.4565 99.1952 79.4037 99.1952C79.351 99.1952 79.8255 98.7561 79.8255 98.7561C79.7728 98.7561 79.4037 98.4146 79.351 98.4146C80.511 94.4135 80.9328 91.1932 79.7201 87.5825C78.0329 82.6057 72.2331 76.3602 68.1206 72.8959C67.1715 72.1152 72.3913 64.8451 73.0767 64.0156C74.9748 61.5759 76.9784 59.9658 79.7201 58.5508C86.9434 63.5277 93.1649 70.0171 101.232 73.9205C103.71 75.0916 106.241 75.7747 108.877 76.165C108.192 77.6288 107.664 79.1902 106.873 80.654Z" fill="#D49176"/>
<g opacity="0.16">
<g opacity="0.16">
<g opacity="0.16">
<path opacity="0.16" d="M87.5239 72.1143C88.4729 70.3089 89.3165 68.4548 90.0547 66.5519C86.6276 63.8683 83.3059 61.0383 79.7733 58.5986C77.0316 60.0136 75.0808 61.6238 73.13 64.0634C72.4446 64.8929 67.2248 72.163 68.1738 72.9437C71.4428 75.6761 75.7135 80.1651 78.1916 84.3613C81.9878 80.7018 85.1513 76.6032 87.5239 72.1143Z" fill="#D45B51"/>
</g>
</g>
</g>
<path d="M27.0478 64.8427C24.7806 64.4523 22.408 65.6234 21.1953 67.4287C20.0354 69.234 19.9826 71.5761 20.879 73.5766C23.0407 78.4559 29.4204 81.3347 34.9038 80.6028C37.9618 80.2124 40.8617 78.7974 42.9707 76.6994" fill="#D49176"/>
<path d="M39.1213 78.9939C38.5971 78.9939 38.1722 78.6006 38.1722 78.1156C38.1722 77.6305 38.5971 77.2373 39.1213 77.2373C39.6454 77.2373 40.0703 77.6305 40.0703 78.1156C40.0703 78.6006 39.6454 78.9939 39.1213 78.9939Z" fill="#8976EB"/>
<path opacity="0.6" d="M25.7288 75.1395C24.9906 74.4564 24.3052 73.6757 23.778 72.8462C22.8289 71.4312 21.9326 70.0163 23.9361 69.0892C25.307 68.4549 27.2578 68.4061 28.7868 68.6013C31.4758 68.9428 33.8484 69.5283 36.0101 71.1385C36.221 71.2849 36.4319 71.48 36.5374 71.724C36.801 72.3095 36.221 72.9438 35.6938 73.2854C35.1138 73.6757 34.4811 74.0173 34.3757 74.6516C34.1648 76.2129 36.9065 76.7009 38.0664 76.7985C38.0137 76.7985 36.3792 78.3598 36.0629 78.5062C35.272 78.8478 34.2175 79.0917 33.3739 78.8965C30.474 78.3598 27.7851 77.0424 25.7288 75.1395Z" fill="#D47A56"/>
<path d="M48.5602 7.75731C45.5022 6.87904 42.2332 6.63507 38.7534 7.41576C30.0538 9.36748 22.4614 14.6859 16.8725 21.0778C12.6018 25.9571 8.91105 31.9586 8.85832 38.3992C8.8056 44.352 12.2854 50.4999 15.7653 55.3792C20.9323 62.6005 27.7866 68.2605 34.4299 74.3108C38.4898 78.0678 43.0241 81.5809 48.5075 83.3375C59.6325 86.8506 72.5501 82.5568 79.8788 75.2379C84.2023 70.8953 85.0986 64.5522 86.0477 58.5995C87.1549 51.5245 84.0441 45.4742 80.617 39.3263C76.8735 32.5441 72.0756 26.2498 66.8031 20.3947C62.0051 15.0762 55.8363 9.8554 48.5602 7.75731Z" fill="#D49176"/>
<path d="M68.2251 29.128C64.7453 21.3211 75.1848 15.7099 81.9863 19.5646C84.728 21.126 86.6261 23.7608 87.4697 26.6883C89.4206 33.3242 86.1516 40.5943 79.2446 44.1074" fill="#D49176"/>
<path opacity="0.6" d="M80.6158 23.2732C79.7722 22.6876 78.8758 22.1509 77.8741 21.7606C76.2396 21.0775 74.6051 20.3944 73.867 22.3949C73.3397 23.7611 73.5506 25.5176 73.9197 26.8838C74.6051 29.2747 75.5542 31.4216 77.5577 33.1781C77.7686 33.3733 77.9795 33.5197 78.2431 33.5684C78.9286 33.7148 79.5085 33.1293 79.8249 32.5926C80.1412 32.0559 80.4576 31.3728 81.143 31.2264C82.7775 30.8361 83.6738 33.3245 83.8847 34.3491C83.8847 34.3003 85.361 32.6414 85.4665 32.2998C85.7301 31.5192 85.8355 30.5433 85.5719 29.7626C84.6229 27.2254 82.8829 24.8833 80.6158 23.2732Z" fill="#D47A56"/>
<path d="M81.7756 37.7155C81.2515 37.7155 80.8266 37.3223 80.8266 36.8373C80.8266 36.3522 81.2515 35.959 81.7756 35.959C82.2997 35.959 82.7246 36.3522 82.7246 36.8373C82.7246 37.3223 82.2997 37.7155 81.7756 37.7155Z" fill="#8976EB"/>
<path d="M43.2859 50.4023C43.7605 52.4516 44.6568 54.4522 45.6058 56.3551C46.5549 58.258 47.6094 60.1121 48.4003 62.0151C48.5057 62.259 48.6112 62.503 48.7166 62.7469L48.9803 63.4788C49.1912 63.9668 49.4021 64.5035 49.7711 64.9914C50.0875 65.4793 50.562 65.9673 51.142 66.3088C51.4056 66.4552 51.7747 66.6016 52.091 66.6992C52.4074 66.7967 52.7237 66.7968 53.0928 66.7968C53.7255 66.7968 54.3582 66.6992 54.9382 66.504C55.5182 66.3088 56.0454 66.1136 56.5727 65.7721C57.5745 65.1866 58.4181 64.3571 58.8926 63.43C58.1017 64.2107 57.2054 64.845 56.2563 65.2354C55.7818 65.4305 55.2545 65.5769 54.7273 65.6745C54.2 65.7721 53.6728 65.8209 53.1983 65.7721C52.7237 65.7233 52.3019 65.5769 51.9329 65.333C51.5638 65.089 51.3002 64.7475 51.0365 64.3571C50.7729 63.9668 50.6147 63.4788 50.4038 63.0397L50.1402 62.3078C50.0348 62.0638 49.9293 61.8199 49.8239 61.5271C48.9803 59.5266 47.8203 57.6725 46.7131 55.8672C45.3949 54.0618 44.2877 52.3053 43.2859 50.4023Z" fill="#AC523F"/>
<path d="M9.43691 33.7629C13.8131 38.9349 33.374 34.0068 36.2212 33.3725C43.7608 31.616 59.3674 29.6155 67.118 25.5169C68.067 25.029 66.2216 28.542 66.8016 27.6638C67.5398 26.5415 67.5925 25.1753 67.9616 23.9067C68.6997 21.4671 68.9633 20.9304 71.4941 19.9545C65.6944 9.708 53.304 4.34078 40.9664 5.46302C33.1104 6.19491 27.2579 7.41473 20.9837 11.7085C17.8202 13.9042 9.54236 24.6874 9.12056 27.4198C8.54059 30.5426 7.90788 31.9088 9.43691 33.7629Z" fill="black"/>
<path d="M10.9665 33.4703C13.6028 35.91 15.1318 39.2279 15.9227 42.6434C16.7135 46.0101 16.7663 49.5232 16.8717 52.9875C16.8717 54.1097 16.9244 55.2807 16.6081 56.403C16.1863 58.0619 15.0263 59.5257 13.8664 60.8431C13.7082 60.9895 13.4973 61.1847 13.2864 61.1359C13.181 61.0871 13.0755 60.9895 13.0228 60.9407C9.0684 56.159 6.48488 50.4014 5.53583 44.4487C5.27221 42.6434 5.11403 40.7404 5.64128 38.9839C6.3267 36.6418 8.17208 34.7389 9.91201 32.9336C10.0702 33.08 10.2284 33.2751 10.3865 33.4215" fill="black"/>
<path d="M67.7529 24.834C68.7547 27.2248 70.0728 29.5181 71.6546 31.6162C72.2873 32.4457 72.9727 33.2752 73.1836 34.251C70.1256 31.0795 63.0604 27.0785 58.737 28.4935" fill="black"/>
<path d="M23.673 61.8192C23.673 61.8192 18.5587 52.6949 23.3566 51.036C28.1546 49.377 27.7328 50.9384 27.7328 50.9384L23.673 61.8192Z" fill="black"/>
<path d="M56.8379 32.4943C56.8379 32.4943 45.9238 29.0788 44.2893 33.8605C42.6549 38.6422 44.3948 38.0079 44.3948 38.0079L56.8379 32.4943Z" fill="black"/>
<path d="M57.6289 18.248C57.6289 18.248 19.4561 32.7883 10.5456 31.7637C10.5456 31.7637 33.9027 37.7164 57.6289 18.248Z" fill="#231F20"/>
<path d="M9.7541 34.7871C9.7541 34.7871 13.6557 47.3269 13.0757 56.3048C13.0757 56.3048 18.77 43.521 9.7541 34.7871Z" fill="#231F20"/>
<path d="M11.7043 28.1526C11.7043 28.1526 22.5656 10.9775 42.4429 9.31857C42.4429 9.31857 48.928 8.48909 50.668 9.61133C50.668 9.61133 31.9507 10.5872 11.7043 28.1526Z" fill="#231F20"/>
<path d="M8.17188 32.2988C8.17188 32.2988 -0.580476 39.7641 6.01015 51.1817C6.01015 51.1817 4.37568 39.9593 8.17188 32.2988Z" fill="#231F20"/>
<path d="M64.9023 11.4648C64.9023 11.4648 41.387 20.6379 32.1602 19.8572C32.1602 19.8572 54.3046 11.7576 64.9023 11.4648Z" fill="#231F20"/>
<path d="M9.49081 47.3281C9.49081 47.3281 8.4363 52.6465 12.7598 59.2336C12.7598 59.2336 6.43275 53.7688 9.49081 47.3281Z" fill="#231F20"/>
<path d="M87.6293 38.4961C87.6293 38.4961 98.438 57.135 99.2816 65.6737C100.178 74.2613 102.603 52.7924 87.6293 38.4961Z" fill="#231F20"/>
<path d="M57.416 5.56139C57.416 5.56139 43.4966 -1.26961 36.1151 5.56139C36.1151 5.56139 44.4984 2.29227 57.416 5.56139Z" fill="#231F20"/>
<path d="M67.7507 24.2486C67.9089 23.7119 64.7454 21.2722 64.2709 20.8819C62.8473 19.6621 61.1601 18.979 59.7365 18.0519C56.7839 16.1002 53.1459 14.8316 49.7715 13.7581C42.4955 11.4161 35.9049 11.1721 28.787 13.8069C23.9364 15.5635 19.5075 18.2959 15.8695 21.7602C12.3896 25.0293 8.7516 28.7863 6.90623 33.1289C4.32271 39.1304 4.84996 46.1566 7.85528 52.0605C10.8606 57.9645 15.5531 63.3805 21.8274 66.3081C21.3001 66.4544 20.4038 66.8936 20.0347 67.1863C14.9731 63.3317 10.966 59.1843 7.16986 54.2562C6.00991 52.7436 4.95542 51.1823 4.05909 49.5233C2.47735 46.5469 1.21195 43.717 0.737427 40.399C0.262903 37.2275 2.31917 31.6651 2.31917 31.6651C6.00991 23.0288 12.9696 13.4654 21.0365 8.58608C21.5637 8.29332 22.1964 8.04936 22.671 7.65901C29.6834 3.90196 33.4796 3.12128 39.332 3.17007C45.5008 3.21886 51.5115 5.26816 56.8894 8.14694C62.5837 11.1721 67.698 15.0755 71.7051 19.8572C69.7543 20.7355 68.278 22.3457 67.7507 24.2486Z" fill="#6751EE"/>
<path d="M26.9939 59.0372C27.9957 59.4763 29.472 59.1835 30.5265 58.9396C30.5792 58.3053 30.7901 57.7685 31.2119 57.3782C32.53 56.256 35.1135 56.9391 37.0643 58.842C39.0152 60.7937 39.4897 63.2333 38.2243 64.3556C36.9062 65.4778 34.3227 64.7947 32.3718 62.8918C31.6337 62.1599 31.1065 61.3792 30.7901 60.5985C29.1556 60.5009 26.9939 59.0372 26.9939 59.0372Z" fill="black"/>
<path d="M35.3244 58.6959C34.742 58.6959 34.2699 58.259 34.2699 57.72C34.2699 57.181 34.742 56.7441 35.3244 56.7441C35.9068 56.7441 36.3789 57.181 36.3789 57.72C36.3789 58.259 35.9068 58.6959 35.3244 58.6959Z" fill="#FFEEE5"/>
<path d="M27.0989 62.1115C27.468 62.0627 27.837 62.0139 28.2061 61.9651C28.5752 61.8675 28.997 61.7699 29.366 61.5748C29.5769 61.4772 29.7351 61.3308 29.8933 61.1844C30.0515 61.038 30.1569 60.8429 30.2624 60.6477C30.4733 60.3061 30.6314 60.0134 30.7896 59.7206C30.9478 59.4279 31.2114 59.1351 31.3168 59.0375C31.3168 59.0375 31.4223 58.9399 31.5278 58.8912C31.6332 58.7936 31.7914 58.7448 31.8968 58.6472C32.1604 58.5008 32.4241 58.3544 32.6877 58.2081C32.9513 58.1105 33.2149 57.9641 33.584 58.0617L33.6895 57.9641C33.6367 57.7689 33.4786 57.5737 33.2149 57.4762C33.004 57.3786 32.7404 57.281 32.5295 57.281C32.055 57.2322 31.6332 57.281 31.2114 57.4274C31.0005 57.4762 30.7896 57.5737 30.5787 57.6713C30.3678 57.7689 30.1569 57.9153 29.946 58.1593C29.7878 58.4032 29.6824 58.5496 29.6297 58.7448C29.5769 58.94 29.5242 59.0863 29.4188 59.2815C29.3133 59.6231 29.2079 59.9646 29.0497 60.2574C28.997 60.4037 28.9442 60.5501 28.8915 60.6477C28.8388 60.7453 28.7333 60.8429 28.6279 60.9893C28.2061 61.4284 27.468 61.7211 26.8353 62.0627L27.0989 62.1115Z" fill="black"/>
<path d="M47.6639 40.254C48.6656 40.6931 50.1419 40.4003 51.1964 40.1564C51.2491 39.5221 51.46 38.9853 51.8818 38.595C53.1999 37.4728 55.7835 38.1559 57.7343 40.0588C59.6851 42.0105 60.1596 44.4501 58.8942 45.5724C57.5761 46.6946 54.9926 46.0115 53.0418 44.1086C52.3036 43.3767 51.7764 42.596 51.46 41.8153C49.8256 41.7177 47.6639 40.254 47.6639 40.254Z" fill="black"/>
<path d="M48.5071 43.4255C49.1398 43.084 49.8779 42.7912 50.2997 42.3521C50.4052 42.2545 50.5106 42.1569 50.5633 42.0105C50.6161 41.913 50.6688 41.8154 50.7215 41.6202C50.827 41.3274 50.9851 40.9859 51.0906 40.6443C51.1433 40.498 51.196 40.3028 51.3015 40.1076C51.3542 39.9125 51.4597 39.7661 51.6178 39.5221C51.8287 39.2781 52.0396 39.1318 52.2505 39.0342C52.4614 38.9366 52.6723 38.839 52.8832 38.7902C53.305 38.6926 53.7268 38.595 54.2014 38.6438C54.4123 38.6438 54.6759 38.7414 54.8868 38.839C55.0977 38.9366 55.2559 39.1318 55.3613 39.3269L55.2559 39.4245C54.8868 39.3269 54.6232 39.4245 54.3595 39.5709C54.0959 39.7173 53.8323 39.8637 53.5687 40.01C53.4632 40.1076 53.305 40.1564 53.1996 40.254C53.0941 40.3028 52.9887 40.4004 52.9887 40.4004C52.8832 40.5468 52.6196 40.8395 52.4614 41.0835C52.2505 41.3762 52.0924 41.669 51.9342 42.0105C51.8287 42.1569 51.7233 42.3521 51.5651 42.5473C51.4069 42.6936 51.196 42.84 51.0379 42.9376C50.6688 43.1328 50.247 43.2304 49.8779 43.3279C49.5088 43.4255 49.1398 43.4743 48.7707 43.4743L48.5071 43.4255Z" fill="black"/>
<path d="M56.1525 40.0591C55.5702 40.0591 55.0981 39.6222 55.0981 39.0833C55.0981 38.5443 55.5702 38.1074 56.1525 38.1074C56.7349 38.1074 57.207 38.5443 57.207 39.0833C57.207 39.6222 56.7349 40.0591 56.1525 40.0591Z" fill="#FFEEE5"/>
<path d="M74.9746 56.3535C74.9746 56.3535 82.2506 61.9159 77.0309 68.8933C71.7584 75.8707 63.9024 71.089 63.9024 71.089L74.9746 56.3535Z" fill="#D47A56"/>
<path d="M61.3715 70.3562C61.3715 70.3562 62.3206 59.7193 74.1836 55.1328C74.1836 55.1328 71.7055 66.8919 61.3715 70.3562Z" fill="#D47A56"/>
<path d="M61.8983 70.8929C61.8983 70.8929 65.589 72.1127 69.4907 71.1856C71.3361 70.7465 73.2342 69.8194 74.8159 68.1117C76.3977 66.3551 76.9249 64.4034 76.9777 62.5493C77.0304 58.5971 74.605 55.084 74.605 55.084C64.7982 63.1836 62.0565 70.5513 61.8983 70.8929Z" fill="#733E37"/>
<path d="M61.8986 70.8929C61.8986 70.8929 62.6367 71.088 64.3767 70.1122C66.1166 69.1363 73.7617 59.5241 74.3417 58.2067C74.9216 56.8893 74.6053 55.084 74.6053 55.084C64.7985 63.1836 62.0568 70.5513 61.8986 70.8929Z" fill="white"/>
<path d="M69.5443 71.1852C71.3897 70.746 73.2878 69.819 74.8695 68.1112C76.4513 66.3547 76.9785 64.403 77.0312 62.5488C74.4477 63.5247 69.1752 66.1595 69.5443 71.1852Z" fill="#F38274"/>
</svg>
