<svg xmlns="http://www.w3.org/2000/svg" xmlns:xlink="http://www.w3.org/1999/xlink" viewBox="0 0 497.67 517.71"><defs><style>.cls-1{fill:none;}.cls-2{isolation:isolate;}.cls-3{clip-path:url(#clip-path);}.cls-4{fill:#241f20;}.cls-5{fill:#df8d71;}.cls-6{fill:#704eee;}.cls-7{opacity:0.16;mix-blend-mode:multiply;}.cls-8{clip-path:url(#clip-path-2);}.cls-9{clip-path:url(#clip-path-3);}.cls-10{fill:#e4514a;}.cls-11{fill:#8c72f2;}.cls-12,.cls-15{fill:#e1754d;}.cls-12{opacity:0.6;}.cls-13{fill:#b84b38;}.cls-14{fill:#ffece3;}.cls-16{fill:#7b3b34;}.cls-17{fill:#fff;}.cls-18{fill:#ff7a6e;}.cls-19{fill:#200765;}.cls-20{opacity:0.3;}</style><clipPath id="clip-path"><rect class="cls-1" x="3.78" y="¿13.07" width="486.52" height="503.52"/></clipPath><clipPath id="clip-path-2"><rect class="cls-1" x="203.68" y="192.88" width="50.73" height="46.64"/></clipPath><clipPath id="clip-path-3"><rect class="cls-1" x="203.68" y="192.88" width="50.73" height="46.64"/></clipPath></defs><title>tec vacunas</title><g class="cls-2"><g id="Layer_1" data-name="Layer 1"><g class="cls-3"><path d="M132.37,226.66c0,3.8,0,7.69.14,11.56a.25.25,0,0,1,.08.23c0,.18,0,.36,0,.53a73.33,73.33,0,0,0,1.31,11.33c2.58,12.45,9.94,23.65,11.33,36.36.77,7.09-1,14-2.79,20.81-1.5,5.74-3.17,11.47-4.31,17.29,21,1.39,42.21.9,63.08,1,10.48.07,21,.42,31.44.37q16.3-.07,32.6-.91c20.33-1,40.6-2.9,60.8-5.35,1.65-15.39,2.47-30.87,3.75-46.29,1.08-12.87,3.09-25.66,3.58-38.57.49-12.57,0-25.15-.5-37.71s-1.07-25.25-.78-37.88a221.12,221.12,0,0,1,2.32-27.21c-.27-4.93-.46-9.87-.77-14.8-4.08-16-1-33.82-4.71-49.93-4.2-18.27-21.77-41.28-43.28-42.18-3-.13-6.1.2-9.08-.34s-5.73-2-8.48-3.21C242.18,10,202,8.91,178.47,26.55,168.24,34.21,161,43.82,155.6,54.48a156.63,156.63,0,0,0-7.49,26.18,242.54,242.54,0,0,0-3.94,28.75c-1.27,15.65-3.33,31.23-5.46,46.79-.88,6.51-1.77,13-2.59,19.55a25,25,0,0,1-.56,6.62.27.27,0,0,1-.27.23c-.79,6.77-1.48,13.55-2,20.35-.59,7.89-.93,15.8-.93,23.71"/><path class="cls-4" d="M308.26,223.84s-6.4,39.15-1.95,62.81C306.31,286.65,309.37,261.36,308.26,223.84Z"/><path class="cls-4" d="M321.14,156.07S326,207.71,324.35,230c-1,13.48-7.7,58.69-4.81,72.28,0,0-3.85-31.52-.64-64.13S321.46,195.21,321.14,156.07Z"/><path class="cls-4" d="M162.72,176.73s10.33,52.17,6,73.37S185.55,221.29,162.72,176.73Z"/><path class="cls-5" d="M473.53,474.06s5.12-7.43-3-28.26S367.39,308.74,367.39,308.74,332.06,337,334,370l15.46,17.32,59.75,76.27Z"/><path class="cls-6" d="M330.45,523l1.33-246.59-51.24-7.59-8.51-.93c-8.85,15.87-18.66,25.8-36.82,25.8a45.22,45.22,0,0,1-40.38-24.87L152.16,285l-21.44,7.91L150.91,523l-21.55,53.62C268.8,662.23,357.1,598.5,357.1,598.5Z"/><path class="cls-5" d="M199,277.85a99.93,99.93,0,0,0,13.12,3.82A113,113,0,0,0,240.27,285c1.37,0,2.85-.05,4.4-.11a80.92,80.92,0,0,0,15-4.21,51.34,51.34,0,0,0,14-7.47c1.24-1.15,2.37-2.4,3.5-3.66a.26.26,0,0,1,.13-.16h0l.16-.18a.33.33,0,0,1,.21-.11c.05-.05-1.52-.11-1.47-.17s.14-1.25.21-1.34c-8.87-5.57-15-10.89-19.06-19.51-5.55-11.91-6.3-32.6-5.2-45.52.25-2.93-21.05-8.11-23.64-8.63a46.06,46.06,0,0,0-20.71.3c-3.9,20.69-3.5,42.41-10.67,62.4a57,57,0,0,1-9.26,16.21C191.6,274.33,195.16,276.37,199,277.85Z"/><g class="cls-7"><g class="cls-8"><g class="cls-9"><path class="cls-10" d="M217.55,231.54a123.72,123.72,0,0,1-13.87-6.32c1.26-10.36,2.13-20.81,4.06-31a46.06,46.06,0,0,1,20.71-.3c2.59.52,23.89,5.7,23.64,8.63-.87,10.2-.57,25.23,2.32,37a126.21,126.21,0,0,1-36.86-8"/></g></g></g><path class="cls-5" d="M308.84,122.7c3.19-4.29,9.27-5.92,14.39-4.41a17.58,17.58,0,0,1,11,10.83c4.62,12.41-1.44,27.87-12,35.17a31.81,31.81,0,0,1-20.54,5.48"/><circle class="cls-11" cx="310.8" cy="166.29" r="2.23"/><path class="cls-12" d="M328.62,139.64a30.93,30.93,0,0,0-.59-7.37c-.83-4.15-1.59-8.16-6.69-6.73-3.49,1-6.83,4-9.09,6.73-4,4.84-7.1,9.69-8,16.07a3.77,3.77,0,0,0,.07,1.86c.57,1.49,2.57,1.74,4.15,1.54s3.38-.55,4.61.46c3.06,2.52-.87,7.81-2.72,9.8,0-.05,5.52.23,6.35,0a10.66,10.66,0,0,0,5.34-3.51,34.66,34.66,0,0,0,6.58-18.83"/><rect class="cls-1" x="297.37" y="132.26" width="38.7" height="22.6" transform="translate(111.47 424.26) rotate(-78.21)"/><rect class="cls-1" x="297.37" y="132.26" width="38.7" height="22.6" transform="translate(111.47 424.26) rotate(-78.21)"/><path class="cls-5" d="M174.64,50.9a42.09,42.09,0,0,1,16.2-16.09c18.21-10.11,40.36-12.27,60.72-9.26,15.6,2.3,32.24,7.61,43.3,19.42,10.26,11,14.78,27.87,17.12,42.34,3.46,21.48,1.31,42.82.31,64.45-.61,13.38-2.34,27.09-8.73,38.86-13.07,24.06-42.48,36.53-67.53,34.48-14.77-1.21-27.18-11.56-38.91-21-14-11.27-18.89-27.42-23.62-44.24-5.19-18.49-7.63-37.68-8.56-56.83-.83-17.27.83-36.76,9.7-52.09"/><path class="cls-5" d="M177.46,121.53c-7.33-20-34.81-13.81-39.84,4-2,7.21-.76,15.09,2.72,21.78,8,15.39,26,23.61,43.77,19.21"/><path class="cls-12" d="M146.17,130.16a30.83,30.83,0,0,1,2.07-7.09c1.67-3.89,3.23-7.66,7.93-5.22,3.21,1.67,5.87,5.31,7.53,8.44,2.93,5.56,5,10.94,4.55,17.37a3.7,3.7,0,0,1-.45,1.8c-.86,1.35-2.87,1.18-4.37.66s-3.2-1.23-4.61-.49c-3.52,1.84-.75,7.82.66,10.15,0-.06-5.45-.9-6.21-1.31a10.6,10.6,0,0,1-4.51-4.53,34.5,34.5,0,0,1-2.59-19.78"/><rect class="cls-1" x="145.71" y="117.08" width="22.6" height="38.7"/><rect class="cls-1" x="145.71" y="117.08" width="22.6" height="38.7"/><circle class="cls-11" cx="167.29" cy="157.12" r="2.23"/><path class="cls-13" d="M256.4,121.54a69.5,69.5,0,0,1,6.19,14.67c1.59,5,3,10.08,4.85,14.86.22.61.46,1.2.72,1.79l.77,1.82a20.81,20.81,0,0,1,1.28,4,10.28,10.28,0,0,1-.06,4.58,8.15,8.15,0,0,1-.95,2.18,9.86,9.86,0,0,1-1.48,1.77,13.45,13.45,0,0,1-3.62,2.33,15.88,15.88,0,0,1-4,1.23,15.47,15.47,0,0,1-8-.69,18.38,18.38,0,0,0,7.64-.86,16.54,16.54,0,0,0,3.38-1.57,12.23,12.23,0,0,0,2.79-2.25,5.83,5.83,0,0,0,1.46-2.81,8,8,0,0,0-.16-3.27,19.34,19.34,0,0,0-1.22-3.43l-.79-1.8c-.28-.62-.54-1.25-.78-1.88a102.54,102.54,0,0,1-4.28-15.39C259,131.72,257.89,126.64,256.4,121.54Z"/><path d="M302.94,115.68c-1,2.31-4,4.08-6.21,5.08A5.42,5.42,0,0,0,293,119c-4.05-.11-7.47,5.08-7.63,11.57s3,11.85,7,11.95,7.45-5.08,7.62-11.58a17.12,17.12,0,0,0-1.1-6.64c2.7-2.63,4-8.57,4-8.57"/><circle class="cls-14" cx="286.45" cy="125.72" r="2.45"/><path d="M307.72,121.48a25.82,25.82,0,0,1-2.21,1.39,8.9,8.9,0,0,1-2.58,1,5.14,5.14,0,0,1-1.58.1,5.86,5.86,0,0,1-1.5-.38c-.86-.29-1.64-.62-2.43-.87a13.41,13.41,0,0,0-2.06-.51s-.36,0-.67,0-.67.06-1,.11a14.71,14.71,0,0,0-2.1.41,2.86,2.86,0,0,0-1.79,1.14h-.35a2.13,2.13,0,0,1-.05-1.61,4.1,4.1,0,0,1,.83-1.4,7.06,7.06,0,0,1,2.48-1.76,7.54,7.54,0,0,1,1.46-.46,4.55,4.55,0,0,1,1.86,0,5.87,5.87,0,0,1,1.51.59c.42.22.8.45,1.18.68.75.46,1.49.88,2.19,1.26a5.85,5.85,0,0,0,.9.43,3.39,3.39,0,0,0,1,.21,18.08,18.08,0,0,0,4.83-.72Z"/><path d="M233.38,111.87c-1,2.31-4,4.08-6.21,5.08a5.43,5.43,0,0,0-3.75-1.82c-4-.1-7.46,5.08-7.63,11.58s3,11.85,7,12,7.46-5.08,7.62-11.58a16.93,16.93,0,0,0-1.1-6.64c2.7-2.63,4-8.57,4-8.57"/><path d="M237.18,119a18.08,18.08,0,0,1-4.83.72,3.77,3.77,0,0,1-1-.21,7,7,0,0,1-.9-.43c-.7-.38-1.44-.8-2.19-1.26-.38-.23-.76-.46-1.18-.69a5.88,5.88,0,0,0-1.51-.58,4.76,4.76,0,0,0-1.86,0,7.55,7.55,0,0,0-1.46.47,6.85,6.85,0,0,0-2.48,1.76,4,4,0,0,0-.83,1.4,2.18,2.18,0,0,0,0,1.61h.36a2.79,2.79,0,0,1,1.79-1.14,16.26,16.26,0,0,1,2.1-.42c.35,0,.7-.08,1-.1s.63,0,.67,0a13.66,13.66,0,0,1,2.06.52c.79.25,1.57.57,2.43.87a6.68,6.68,0,0,0,1.5.38,5.37,5.37,0,0,0,1.57-.11,9.24,9.24,0,0,0,2.59-1,25.9,25.9,0,0,0,2.21-1.4Z"/><circle class="cls-14" cx="216.89" cy="122.46" r="2.45"/><path d="M286,37.34c1.36,16.52-40.57,38.24-46.55,41.51-15.88,8.66-46.09,29.56-66.3,34.23-2.49.58,6.69,4.19,4.25,3.46-3.14-.93-5.57-3.35-8.35-5.08-5.43-3.39-6.77-3.94-12.78-1.83-7.49-28.1,4.56-57.61,27.58-75,14.68-11.1,26.73-18,44.91-19.92,9.18-1,41.67,6,47.1,10.34C282.06,30,285.51,31.53,286,37.34Z"/><path d="M282.91,39.15c-.32,8.7,2.71,17.27,7.14,24.76s10.24,14.06,16,20.58a33.4,33.4,0,0,0,6.21,5.91c3.6,2.4,8,3.31,12.26,3.83.53.07,1.17.07,1.44-.38a1.34,1.34,0,0,0,.1-.84A90.23,90.23,0,0,0,310.8,50.66c-2.61-3.82-5.61-7.52-9.55-9.95-5.21-3.2-11.52-3.9-17.6-4.51l.06,1.68"/><path d="M170.87,112.87a78.77,78.77,0,0,1,4.89,18.77c.34,2.52.58,5.15,2,7.29-.15-10.76,5.11-29.19,15-33.45"/><path d="M313.39,109.9s-13.72-21.94-23-14.48-5.48,8.65-5.48,8.65Z"/><path d="M200.3,111S214.23,88,224.86,94.73s6.51,8.17,6.51,8.17Z"/><path class="cls-4" d="M177.06,84.67s90.17-33.25,103.68-49.3C280.74,35.37,250.85,83.19,177.06,84.67Z"/><path class="cls-4" d="M287.27,39.71s14.67,29.35,31,45.11C318.24,84.82,286.72,70.15,287.27,39.71Z"/><path class="cls-4" d="M272.59,30.48S224.77,15.8,187.81,44.06c0,0-12.5,8.7-13.59,13.59C174.22,57.65,207.92,29.93,272.59,30.48Z"/><path class="cls-4" d="M285.64,32.65s27.71,0,35.86,31.52C321.5,64.17,305.2,40.8,285.64,32.65Z"/><path class="cls-4" d="M153,83.59S209,63.53,223.43,47.47C223.43,47.47,171.64,67.38,153,83.59Z"/><path class="cls-4" d="M309,62.54s10.87,8.15,14.68,27.17C323.68,89.71,325.31,69.61,309,62.54Z"/><path class="cls-4" d="M155.74,60.87s12.19-34.62,36.47-33.62C192.21,27.25,172.36,34.41,155.74,60.87Z"/><path class="cls-15" d="M216.66,184.91s-3.87,19.89,19,24.52,29.23-14.74,29.23-14.74Z"/><path class="cls-15" d="M268.41,189.94s-21.21-17-52.44-8.28C216,181.66,242.22,198.48,268.41,189.94Z"/><path class="cls-16" d="M268.27,191.62a34,34,0,0,1-14.09,11.2A30.39,30.39,0,0,1,238.31,205a25.07,25.07,0,0,1-14.26-6.54A32.77,32.77,0,0,1,215,182.17c33.68.26,52.5,9.08,53.25,9.43Z"/><path class="cls-17" d="M268.27,191.62s-1,1.39-6.2,2.19-37.38-5.08-40.86-6.56a17.84,17.84,0,0,1-6.21-5.08c33.68.26,52.5,9.08,53.25,9.43Z"/><path class="cls-18" d="M254.18,202.82A30.39,30.39,0,0,1,238.31,205a25.07,25.07,0,0,1-14.26-6.54c6.72-1.88,21.65-4.67,30.13,4.41"/><path class="cls-5" d="M187.92,272.09l49.94-20.71L275.53,267s24.81,23.65-21,27.55C197.06,299.46,187.92,272.09,187.92,272.09Z"/><path class="cls-6" d="M328.83,276.4S345,274,370.29,302.88c11.51,13,52.73,65,52.73,65l-68.63,34.76-16.8-15.1-6.9,74.86V353.15Z"/><path class="cls-6" d="M134.64,294.28l-4-1.41s-27,13.08-41.18,59.31-22.53,76.46-22.53,76.46L133.59,443l16.15-81.68Z"/><path class="cls-19" d="M134.23,328.36a14.29,14.29,0,0,1,.49,3.51c.2,2.54.44,5.77.72,9.57.65,8.44,1.46,19.46,2.39,31.65s2,23.18,2.66,31.61c.32,3.8.57,7,.81,9.57a21,21,0,0,1,0,3.55,13.7,13.7,0,0,1-.69-3.47c-.36-2.26-.76-5.53-1.25-9.57-1-8.07-2.14-19.21-3.11-31.57s-1.61-23.58-1.94-31.69c0-4-.24-7.35-.28-9.65A20.61,20.61,0,0,1,134.23,328.36Z"/><g class="cls-20"><path d="M293.17,442.65a120,120,0,0,1-89.15.93Z"/></g><path class="cls-19" d="M332.38,320.12a46.07,46.07,0,0,1,2.43,10.1c1.13,6.29,2.38,15,3.18,24.78s.93,18.62.81,25a44.77,44.77,0,0,1-.76,10.34,57.21,57.21,0,0,1-.73-10.29c-.24-6.38-.65-15.18-1.41-24.87s-1.82-18.41-2.59-24.75A53.92,53.92,0,0,1,332.38,320.12Z"/><path class="cls-5" d="M46.22,377.53S19.94,457,18,471.84c-3.31,22.81,4.24,33.27,15.83,37.31a49.05,49.05,0,0,0,39.6-4.24c12.88-8.92,28.46-38.84,34.52-53.09l5.94-13.08-32.3-7-35.13-54.1"/><path class="cls-5" d="M362,544.8l56.28-97.62s54,25.91,55.23,26.88S417,543.3,378.13,571.48l-14.05-7.06Z"/><path class="cls-5" d="M294.72,521.74s23.65-6.29,26-5,20.18,10.45,20.18,10.45a92.44,92.44,0,0,0,8.36,8.89,23.45,23.45,0,0,0,10.25,5.81,18.57,18.57,0,0,0,6.63-.69l14,28.26s-7.3,9.25-12.43,9.17-33.67-11.87-33.67-11.87l-6.9-1.45s-25.84,3.67-28-4l-.25-2.18,25.44-4.89,9.65.57L317,550.45s-24.22,1.17-26.52.77-5.17-3.52-4.45-5.49l5-1.18s-5.89-3.1-6.05-6.54l22.4-6S292.7,526.67,294.72,521.74Z"/><path class="cls-5" d="M132.42,279.71c-7.51,4-8.89,14.86-8.89,14.86L116,302.28l-.69-9.49,9.89-28.62s7.59-20.43,3.51-20.19-8.07,5.17-11.38,14l-7.59,20s-1.5,3.39-1.38-3.63,10.1-31.25,10.74-34.92,4.93-11.87,0-14.09-8.27,9.44-8.27,9.44L95.64,270.26s3.55-15.74,4-18.49,3.56-10.7,4.37-15.54-.37-8.08-2.55-9.17a4.52,4.52,0,0,0-5.89,1.7l-9.93,32.3s-3.84,15-4.57,15.7-1.89-8.27-1.89-8.27l1.73-11.27s4.68-14.69,1.33-17.12-5,0-5,0l-7.92,27L64.07,300l-2,26.08-1.33,4-6.14,19.5-8.36,27.74L23.17,454.08l50.22,23.46L90.31,382.9l8.07-42.31s21.48-11.51,25.32-18.13l17.6-41.26S140,275.79,132.42,279.71Z"/><path class="cls-13" d="M79.17,312.33a54.33,54.33,0,0,0,6.46-4.28,24.91,24.91,0,0,1,17-5,13.21,13.21,0,0,1,7.71,3.72l.69.69.73-.77c3.27-3.39,6.66-6.3,8.72-8.44s3.27-3.55,3.06-3.71a29.19,29.19,0,0,0-3.83,2.9,122.56,122.56,0,0,0-9.41,8.08h1.42a14.71,14.71,0,0,0-8.81-4.36,20.41,20.41,0,0,0-10.65,1.37,32.78,32.78,0,0,0-7.43,4.36A21.39,21.39,0,0,0,79.17,312.33Z"/><path class="cls-13" d="M97.52,342.35q-.42,2.83-1,5.58c-.74,4-1.65,8.91-2.77,14.91-2.34,12.61-5.54,30.07-9,49.41s-6.38,37-8.51,49.76c-1,6.09-1.86,11.16-2.53,15.1-.28,1.88-.61,3.73-1,5.53.18-1.88.41-3.77.7-5.65.53-3.59,1.32-8.78,2.34-15.21,2-12.84,4.94-30.54,8.35-49.93S90.89,375,93.33,362.5c1.23-6.28,2.24-11.32,3-14.81C96.65,345.85,97.06,344.06,97.52,342.35Z"/></g></g></g></svg>