<svg width="1600" height="459" viewBox="0 0 1600 459" fill="none" xmlns="http://www.w3.org/2000/svg">
<path d="M-176.91 592.228C-254.566 426.879 -155.221 203.376 -2.72056 112.266C82.228 61.4063 184.813 48.8452 283.699 50.6788C426.751 53.362 567.493 83.5404 709.259 102.181C851.026 120.821 998.122 127.323 1134.29 83.7801C1222.13 55.7454 1305.32 7.02915 1397.47 1.47572C1473.65 -3.16421 1548.93 22.4168 1616.85 57.2043C1689.67 94.5236 1760.38 147.184 1789.34 223.639C1817.08 296.611 1801.23 381.218 1760.97 448.195C1720.7 515.171 1743.05 655.875 1676.5 697.009C1535.2 784.511 1287.1 741.633 1122.68 766.182C958.258 790.732 791.471 794.136 625.327 801.103C443.749 808.617 258.938 820.234 82.8523 774.826C3.93193 754.575 -74.4714 721.25 -129.766 661.617C-149.716 640.296 -165.273 616.901 -176.91 592.228Z" fill="#704EED"/>
</svg>
