<svg width="1600" height="810" viewBox="0 0 1600 810" fill="none" xmlns="http://www.w3.org/2000/svg">
<path d="M-254.214 533.582C-311.456 357.126 -177.699 132.255 -7.43122 48.0663C87.4293 1.05871 195.186 -5.1012 297.119 3.40203C444.573 15.7349 585.814 56.3933 729.72 85.1689C873.625 113.944 1024.73 130.503 1171.49 94.4941C1266.17 71.3218 1358.92 26.4174 1454.92 26.8192C1534.29 27.1006 1608.51 58.6247 1673.87 99.1942C1743.92 142.713 1809.67 201.981 1828.95 283.108C1847.47 360.546 1819.32 447.124 1768.39 513.81C1717.47 580.495 1646.05 629.367 1571.55 667.53C1413.37 748.729 1237.88 786.109 1064.56 800.557C891.231 815.005 718.402 807.393 545.743 803.513C357.058 799.169 164.461 798.86 -11.1853 740.067C-89.9227 713.82 -166.307 674.065 -215.15 608.605C-232.8 585.187 -245.621 559.916 -254.214 533.582Z" fill="#BEB1F8"/>
</svg>
