<svg xmlns="http://www.w3.org/2000/svg" xmlns:xlink="http://www.w3.org/1999/xlink" viewBox="0 0 1024 768"><defs><style>.cls-1{fill:none;}.cls-2{isolation:isolate;}.cls-16,.cls-3{fill:#6b54e6;}.cls-4{opacity:0.3;}.cls-5{fill:#fff;}.cls-6{fill:#263238;}.cls-7{fill:#2cae7a;}.cls-8{fill:#ebebeb;}.cls-9{fill:#e0e0e0;}.cls-10{opacity:0.2;}.cls-11{fill:#f36250;}.cls-12{fill:#f47363;}.cls-13{fill:#503fad;}.cls-14{fill:#d49176;}.cls-15,.cls-25{fill:#d47a56;}.cls-15{opacity:0.6;}.cls-16{font-size:20.26px;font-family:Poppins-ExtraBold, Poppins;font-weight:700;}.cls-17{fill:#231f20;}.cls-18{opacity:0.16;mix-blend-mode:multiply;}.cls-19{clip-path:url(#clip-path);}.cls-20{clip-path:url(#clip-path-2);}.cls-21{fill:#d45b51;}.cls-22{fill:#ffeee5;}.cls-23{fill:#8976eb;}.cls-24{fill:#ac523f;}.cls-26{fill:#733e37;}</style><clipPath id="clip-path"><rect class="cls-1" x="479.28" y="200.61" width="38.26" height="35.18"/></clipPath><clipPath id="clip-path-2"><rect class="cls-1" x="479.28" y="200.61" width="38.26" height="35.18"/></clipPath></defs><title>NotFound_Placeholder</title><g class="cls-2"><g id="Layer_1" data-name="Layer 1"><g id="freepik--Locators--inject-164"><path class="cls-3" d="M223.36,293.44a35.31,35.31,0,0,0-27.82,55.91h0l.33.48h0l25,34a5.37,5.37,0,0,0,7.51,1.14,5.31,5.31,0,0,0,1.27-1.32l22.6-33.6c4.26-6.52,7.2-13.34,7.2-21.38a35.3,35.3,0,0,0-35.38-35.23Zm.84,61a26.55,26.55,0,1,1,26.55-26.55h0a26.55,26.55,0,0,1-26.55,26.55Z"/><g class="cls-4"><path d="M223.36,293.44a35.31,35.31,0,0,0-27.82,55.91h0l.33.48h0l25,34a5.37,5.37,0,0,0,7.51,1.14,5.31,5.31,0,0,0,1.27-1.32l22.6-33.6c4.26-6.52,7.2-13.34,7.2-21.38a35.3,35.3,0,0,0-35.38-35.23Zm.84,61a26.55,26.55,0,1,1,26.55-26.55h0a26.55,26.55,0,0,1-26.55,26.55Z"/></g><path class="cls-3" d="M221.28,293.44a35.44,35.44,0,0,0-34.47,34.44,35.05,35.05,0,0,0,6.61,21.49h0l.35.48h0l25,34a5.39,5.39,0,0,0,8.85-.16l22.6-33.61c4.28-6.51,7.2-13.34,7.2-21.38a35.31,35.31,0,0,0-35.35-35.27Zm.82,56.21a20.1,20.1,0,1,1,20.12-20.1,20.1,20.1,0,0,1-20.12,20.1h0Z"/><path class="cls-3" d="M295.94,132.56a21.54,21.54,0,0,0-17,34.12h0l.2.29h0l15.26,20.75a3.29,3.29,0,0,0,5.36-.11l13.79-20.51c2.6-4,4.4-8.14,4.4-13a21.56,21.56,0,0,0-21.59-21.51Zm.51,37.21a16.2,16.2,0,1,1,16.2-16.2h0a16.2,16.2,0,0,1-16.2,16.2Z"/><g class="cls-4"><path d="M295.94,132.56a21.54,21.54,0,0,0-17,34.12h0l.2.29h0l15.26,20.75a3.29,3.29,0,0,0,5.36-.11l13.79-20.51c2.6-4,4.4-8.14,4.4-13a21.56,21.56,0,0,0-21.59-21.51Zm.51,37.21a16.2,16.2,0,1,1,16.2-16.2h0a16.2,16.2,0,0,1-16.2,16.2Z"/></g><path class="cls-3" d="M294.67,132.56a21.56,21.56,0,0,0-17,34.13h0l.21.29h0l15.25,20.75a3.28,3.28,0,0,0,4.58.75,3.31,3.31,0,0,0,.82-.85l13.79-20.51c2.61-4,4.4-8.14,4.4-13a21.56,21.56,0,0,0-21.57-21.53Zm.5,34.3a12.27,12.27,0,1,1,12.28-12.27,12.28,12.28,0,0,1-12.28,12.27h0Z"/><path class="cls-3" d="M705.86,124.27a17.83,17.83,0,0,0-14.05,28.22h0l.17.25h0l12.63,17.16a2.72,2.72,0,0,0,4.43-.09l11.4-17a19.26,19.26,0,0,0,3.64-10.79,17.82,17.82,0,0,0-17.86-17.78Zm.42,30.79a13.41,13.41,0,1,1,13.4-13.41h0a13.4,13.4,0,0,1-13.4,13.41Z"/><g class="cls-4"><path d="M705.86,124.27a17.83,17.83,0,0,0-14.05,28.22h0l.17.25h0l12.63,17.16a2.72,2.72,0,0,0,4.43-.09l11.4-17a19.26,19.26,0,0,0,3.64-10.79,17.82,17.82,0,0,0-17.86-17.78Zm.42,30.79a13.41,13.41,0,1,1,13.4-13.41h0a13.4,13.4,0,0,1-13.4,13.41Z"/></g><path class="cls-3" d="M704.81,124.27a17.89,17.89,0,0,0-17.4,17.38,17.69,17.69,0,0,0,3.33,10.85h0l.18.24h0l12.62,17.17a2.71,2.71,0,0,0,3.78.62,2.66,2.66,0,0,0,.68-.7l11.41-17a19.28,19.28,0,0,0,3.64-10.79,17.82,17.82,0,0,0-17.85-17.8Zm.41,28.37a10.15,10.15,0,1,1,10.16-10.14,10.15,10.15,0,0,1-10.16,10.14Z"/><path class="cls-3" d="M777.19,260a26.91,26.91,0,0,0-21.26,42.62h0l.26.36h0l19.06,25.9a4.08,4.08,0,0,0,5.72.8,3.74,3.74,0,0,0,.89-.93l17.23-25.61a29.15,29.15,0,0,0,5.5-16.28,26.91,26.91,0,0,0-27-26.86Zm.64,46.48a20.2,20.2,0,1,1,.07,0Z"/><g class="cls-4"><path d="M777.19,260a26.91,26.91,0,0,0-21.26,42.62h0l.26.36h0l19.06,25.9a4.08,4.08,0,0,0,5.72.8,3.74,3.74,0,0,0,.89-.93l17.23-25.61a29.15,29.15,0,0,0,5.5-16.28,26.91,26.91,0,0,0-27-26.86Zm.64,46.48a20.2,20.2,0,1,1,.07,0Z"/></g><path class="cls-3" d="M775.6,260a26.92,26.92,0,0,0-21.21,42.62h0l.25.36h0l19,25.9a4.08,4.08,0,0,0,5.73.87,3.84,3.84,0,0,0,1-1l17.22-25.61a29.14,29.14,0,0,0,5.49-16.28,26.91,26.91,0,0,0-27-26.87Zm.63,42.83a15.33,15.33,0,1,1,15.32-15.32h0a15.31,15.31,0,0,1-15.29,15.32Z"/></g><g id="freepik--Map--inject-164"><polygon class="cls-5" points="242.67 420.37 124.61 713.55 345.97 677.15 508.31 713.55 674.58 677.15 896.93 719.57 777.9 420.37 645.07 386.91 510.78 412.5 373.52 386.91 242.67 420.37"/><path class="cls-6" d="M242.67,420.37l2.16-.58,6.47-1.65,25.32-6.53,96.85-24.8h.09l137.2,25.51h-.11l134.29-25.63h.23L778,420.05h.2v.18l119,299.21.3.73-.78-.15L782.34,698.2l-108-20.6h.18L508.27,714h-.1L345.84,677.6H346L124.59,714l-.55.08.22-.51c36.51-90.52,66.12-163.82,86.52-214.49l23.57-58.3,6.14-15.14c1.38-3.41,2.11-5.14,2.11-5.14s-.68,1.76-2,5.2l-6.08,15.21-23.36,58.3L124.9,713.67l-.34-.43L346,676.77h.15l162.33,36.37h-.17l166.27-36.37h.08l108,20.6L897,719.19l-.48.58-119-299.2.27.23L644.94,387.31h.23L510.83,412.78h-.12l-137.2-25.66h0l-96.76,24.67-25.37,6.43-6.5,1.65Z"/><polygon class="cls-5" points="249.56 428.24 145.27 698.79 344.99 666.33 510.78 704.69 674.58 665.35 878.24 704.69 771 428.24 647.04 397.74 510.78 423.33 371.56 397.74 249.56 428.24"/><polygon class="cls-7" points="156.86 668.74 315.6 631.96 309.75 597.77 322.94 589.46 302.41 509.6 238.93 455.79 156.86 668.74"/><polygon class="cls-8" points="145.27 698.79 153.01 678.72 419.18 616.88 433.63 656.67 428.95 664.71 378.96 674.2 344.99 666.33 145.27 698.79"/><polygon class="cls-8" points="433.63 613.03 444.19 652.39 474.86 665.72 518.47 646.34 609.96 619.69 581.41 576.68 433.63 613.03"/><polygon class="cls-9" points="327.32 627.61 376.78 616.88 366.91 584.75 330.88 593.44 321.29 600.22 327.32 627.61"/><polygon class="cls-7" points="317.22 521.11 335.17 580.04 363.24 573.85 358.18 551.22 419.93 537.39 317.22 521.11"/><polygon class="cls-8" points="243.61 443.69 321.29 506.05 424.41 525.6 534.4 498.26 484.2 418.43 371.56 397.74 249.56 428.24 243.61 443.69"/><polygon class="cls-8" points="499.22 421.19 660.48 668.74 674.58 665.35 518.5 421.87 510.78 423.33 499.22 421.19"/><polygon class="cls-9" points="368.56 557.46 389 616.88 570.4 570.53 536.83 513.38 368.56 557.46"/><polyline class="cls-9" points="469.49 695.14 471.25 692.51 483.17 674.81 511.75 665.72 531.42 650.9 616.67 627.61 643.16 672.89 510.78 704.69"/><polygon class="cls-9" points="620.51 402.71 663.22 450.24 771 428.24 647.04 397.74 620.51 402.71"/><polygon class="cls-9" points="793.68 486.7 714.53 508.71 674.58 455.79 773.7 435.21 793.68 486.7"/><polygon class="cls-8" points="526.96 420.27 609.96 539.49 705.74 512 609.96 404.7 526.96 420.27"/><polygon class="cls-9" points="758.99 681.65 854.75 644.14 878.24 704.69 758.99 681.65"/><polygon class="cls-7" points="658.83 532.36 710.87 518.79 765.83 584.75 712.34 602.5 658.83 532.36"/><polygon class="cls-9" points="722.59 513.38 780.49 579.77 824.1 565.13 795.42 491.2 722.59 513.38"/><polygon class="cls-7" points="765.83 666.16 722.59 606.17 827.11 572.86 848.33 627.61 834.71 641.32 765.83 666.16"/><polygon class="cls-9" points="615.04 548.25 694.48 668.74 743.41 678.64 752.64 674.43 651.97 537.12 615.04 548.25"/><polygon class="cls-9" points="289.45 638.03 269.66 544.96 199.87 557.16 156.86 668.74 289.45 638.03"/><polygon class="cls-7" points="353.62 402.22 353.62 444.83 368.56 446.72 410.29 495.32 446.16 491.2 463.24 515.95 424.41 525.6 321.29 506.05 243.61 443.69 249.56 428.24 353.62 402.22"/><polygon class="cls-9" points="571.76 412.23 630.36 497.75 680.85 484.11 609.96 404.7 571.76 412.23"/><polygon class="cls-8" points="743.79 500.57 722.59 467.43 779.91 451.23 793.68 486.7 743.79 500.57"/><polygon class="cls-8" points="658.83 614.67 686.58 605.06 740.41 678.03 694.48 668.74 658.83 614.67"/><polygon class="cls-7" points="402.85 679.72 428.65 676.58 437.25 664 469.49 674.13 461.05 693.19 402.85 679.72"/><path class="cls-6" d="M249.56,428.32l8-2.07,23.61-5.95,90.31-22.7h.08l139.24,25.51h-.12L647,397.47h.15l124,30.47h.18v.2c32.92,84.48,69.17,178,107.35,276.41l.29.72-.76-.15L776,685.39,674.5,665.76h.18l-163.8,39.35h-.2l-165.77-38.4h.15l-199.74,32.4-.53.08.18-.51c32.29-83.57,58.42-151.21,76.47-198,9-23.34,16.05-41.47,20.81-53.77l5.44-14c1.23-3.16,1.87-4.74,1.87-4.74s-.61,1.65-1.82,4.81l-5.35,14L221.71,501l-76.14,198-.35-.42L344.93,666h.15l165.78,38.42h-.18L674.48,665h.1l101.56,19.52,102.11,19.74-.47.58C839.61,606.42,803.39,513,770.57,428.38l.27.24-124-30.54H647L510.73,423.61h-.12L371.42,398h0L281.33,420.4l-23.65,5.87Z"/><g class="cls-10"><polygon points="508.31 713.91 510.78 412.86 373.52 387.27 345.97 677.51 508.31 713.91"/></g><g class="cls-10"><polygon points="645.52 386.91 675.03 677.15 897.38 719.57 778.35 420.37 645.52 386.91"/></g></g><g id="freepik--Character--inject-164"><path class="cls-3" d="M511.84,127.61C416,129.84,337.75,208,335.47,303.88a179.86,179.86,0,0,0,34,109.87h0l1.77,2.4.25.35,128,174a27.47,27.47,0,0,0,44.93-.94L660.05,417.67c21.89-33.39,36.9-68.27,36.9-109.4A180.71,180.71,0,0,0,516.24,127.56C514.77,127.56,513.3,127.57,511.84,127.61Zm4.29,312.08A135.87,135.87,0,1,1,652,303.81v0A135.86,135.86,0,0,1,516.13,439.69Z"/><path class="cls-11" d="M511.84,127.61C416,129.84,337.75,208,335.47,303.88a179.86,179.86,0,0,0,34,109.87h0l1.77,2.4.25.35,128,174a27.47,27.47,0,0,0,44.93-.94L660.05,417.67c21.89-33.39,36.9-68.27,36.9-109.4A180.71,180.71,0,0,0,516.24,127.56C514.77,127.56,513.3,127.57,511.84,127.61Zm4.29,312.08A135.87,135.87,0,1,1,652,303.81v0A135.86,135.86,0,0,1,516.13,439.69Z"/><path class="cls-12" d="M501.12,127.61C405.25,129.84,327,208,324.76,303.88a179.79,179.79,0,0,0,34,109.87h0l1.77,2.4.25.35,127.94,174a27.47,27.47,0,0,0,38.41,5.86,27.19,27.19,0,0,0,6.52-6.8L649.34,417.67c21.88-33.39,36.89-68.27,36.89-109.4,0-99.8-80.9-180.71-180.7-180.71C504.06,127.56,502.59,127.57,501.12,127.61Zm4.3,312.08A135.87,135.87,0,1,1,641.27,303.81v0A135.86,135.86,0,0,1,505.42,439.69Z"/><g class="cls-4"><path d="M436.58,449.39c12.9,10,29.74,12.88,46,13.81,28.79,1.67,62.42-5.64,90-14-2.17-2.46-145.84-40.4-148-42.86C416.68,420.55,423.69,439.41,436.58,449.39Z"/></g><path class="cls-3" d="M602.8,357.81l-36.21-5.17,2.6,91.94H436.25l6.81-98L393,336s11.29-56.91,20-71.56,61.26-15.75,61.26-15.75c1.77,7.8,6.32,11.23,11.35,17.44,8.34,9.69,21.2,11.21,32.59,7.14C529,269.44,529,253.59,529,253.59s46.7,13.92,57.42,25S599.85,312,599.85,312Z"/><path class="cls-13" d="M452.67,347.55c-.09-1.42-.2-3.47-.3-6-.22-5.08-.42-12.1-.58-19.84s-.25-14.74-.25-19.83v-6a9,9,0,0,1,.17-2.2,7.82,7.82,0,0,1,.28,2.2c.1,1.42.2,3.47.3,6,.21,5.07.41,12.1.57,19.83s.25,14.75.25,19.84v6a8.08,8.08,0,0,1-.18,2.19A7.82,7.82,0,0,1,452.67,347.55Z"/><path class="cls-13" d="M573.06,331.94c-3.56,12.27-6.66,22.27-7,22.19s2.33-10.22,5.87-22.5,6.66-22.28,7-22.2S576.61,319.68,573.06,331.94Z"/><path class="cls-13" d="M420.27,261a28.84,28.84,0,0,1,4.57,1.15,39.67,39.67,0,0,1,23,20,28.69,28.69,0,0,1,1.75,4.39,5.16,5.16,0,0,1,.38,1.65c-.19.06-1-2.27-2.86-5.69a43.45,43.45,0,0,0-22.51-19.59c-3.65-1.39-6-1.83-6-2A4.78,4.78,0,0,1,420.27,261Z"/><path class="cls-14" d="M448,347.62,459.56,403l84.22,23.62,18.19,23s-96.26,3.49-120.78-1.47C423,444.5,420.27,427,418.55,420.45s-16.72-82.65-16.72-82.65Z"/><path class="cls-14" d="M599.85,313.08l-16.38,42.3-16.87-2.82-21.71,62.72s-6.23,27.47,15,33.92c27.87,8.44,40.94-39.16,46.93-60.13,5.62-19.73,19.19-65.41,19.19-65.41Z"/><path class="cls-15" d="M552.08,416.66a12,12,0,0,1-.58-2,20.07,20.07,0,0,1,0-7.8A31.42,31.42,0,0,1,556,396.08a84,84,0,0,1,8.83-11,97.85,97.85,0,0,0,8.79-10.79,73.52,73.52,0,0,0,5.69-9.84c1.39-2.93,2.38-5.41,3-7.06a19.32,19.32,0,0,1,1.07-2.63,10.25,10.25,0,0,1-.66,2.78,60.92,60.92,0,0,1-2.71,7.26,68.09,68.09,0,0,1-5.54,10.08,91.18,91.18,0,0,1-8.82,11,89.31,89.31,0,0,0-8.8,10.79,32.26,32.26,0,0,0-4.53,10.27,23.69,23.69,0,0,0,0,10.33A2.57,2.57,0,0,1,552.08,416.66Z"/><path class="cls-14" d="M616.83,321.38l8.93,2.88,15.44-15.34,14.45-18.58,9.91-17.23s.5-2.1-2.31-2.61-8.17,8.94-8.17,8.94l-5,6.32s-5.15,3.75-5.15,3,5.9-9.92,5.9-9.92l11.82-20.5a3.09,3.09,0,0,0-1.92-3.78c-1.52-.66-3.82.39-5.92,3.14s-4.78,8.11-5.93,9.7-7.57,11-7.57,11l11.06-24.8s4.43-7.3,1-8.74-5.64,4.73-7.24,6.82-9.32,18.83-12.88,22.29-2.53,1.07-2.53,1.07l6.78-13.42c3-5.87,3.56-10.35,1.77-12.48s-8.71,11.57-8.71,11.57l-10,18.81-5.15,4.27.39-7.54s5.1-5.92,3.44-11.65-5-3.71-5-3.71l-12.89,28.8c-1.6,5.19-1.51,23.37-1.51,23.37Z"/><path class="cls-15" d="M628.37,304.21a24.48,24.48,0,0,0-1.39-6.32,15.07,15.07,0,0,0-4.68-6.51,10.69,10.69,0,0,0-6.92-2.51l.67.79a88.7,88.7,0,0,0-.28-9.37,19,19,0,0,0-.34-3.61,8.13,8.13,0,0,0-.5,3.62c-.13,2.23,0,5.61-.23,9.14v.8h.74a9.87,9.87,0,0,1,6,2.3c4.19,3.28,5.36,8.39,5.94,11.8a35,35,0,0,0,.89,5.67A17.65,17.65,0,0,0,628.37,304.21Z"/><path class="cls-5" d="M403.4,472.34H617c4.43,0,8,4.74,8,10.59v76.75c0,5.84-3.6,10.58-8,10.58H403.4c-4.44,0-8-4.74-8-10.58V482.93C395.36,477.08,399,472.34,403.4,472.34Z"/><path class="cls-6" d="M617.07,570.15a6.72,6.72,0,0,0,1.52-.26,7.52,7.52,0,0,0,3.9-2.69,12.6,12.6,0,0,0,2.48-8.68V487.09a54,54,0,0,0-.15-6,11.55,11.55,0,0,0-2.13-5.19,7.31,7.31,0,0,0-4.1-2.8,31.6,31.6,0,0,0-5-.15l-210,.15c-3.78,0-7,3.65-7.53,8.57-.15,1.55,0,3.28-.09,4.93v72.74a12.89,12.89,0,0,0,.68,4.34,8.64,8.64,0,0,0,5,5.55,9.08,9.08,0,0,0,3.31.37H530l63.66.2H611l-17.3.11-63.66.17-94.43.13H404.77a9.85,9.85,0,0,1-3.61-.41c-3.71-1.34-6.27-5.8-6.21-10.86V486.24c0-1.69,0-3.39.1-5.08a12.88,12.88,0,0,1,1.47-4.86c1.6-2.93,4.17-4.67,6.91-4.69l210,.18a29.4,29.4,0,0,1,5,.19c3.35.82,6,4.27,6.61,8.68a51.77,51.77,0,0,1,.15,6.1v71.43a15.5,15.5,0,0,1-.68,5.19,11.23,11.23,0,0,1-2,3.56,7.35,7.35,0,0,1-4,2.63,5.57,5.57,0,0,1-1.14.15Z"/><text class="cls-16" transform="translate(405.64 517.25)">UBICACIÓN EXACTA <tspan x="14.8" y="24.32">NO ENCONTRADA</tspan></text><path class="cls-15" d="M546.15,440.46A30.55,30.55,0,0,0,560.71,448a36,36,0,0,0,9.09.79,18.89,18.89,0,0,0,7.11-1.83,39.13,39.13,0,0,0,5.67-3.87,5.71,5.71,0,0,1-1.23,1.45,17.78,17.78,0,0,1-11.55,5.29,33.69,33.69,0,0,1-9.44-.76,29.15,29.15,0,0,1-14.85-8,25.21,25.21,0,0,1-3.27-4,5.6,5.6,0,0,1-.89-1.67C541.54,435.21,542.92,437.52,546.15,440.46Z"/><path d="M572.83,174.19a.37.37,0,0,1,0-.14,3.93,3.93,0,0,1,.41-2.46,2,2,0,0,1,.64-.59,166.24,166.24,0,0,1,1.62-17c-.2-3.72-.34-7.45-.58-11.17-3.07-12.1-.75-25.5-3.55-37.65-3.17-13.78-16.42-31.14-32.64-31.82a52,52,0,0,1-6.85-.25,28,28,0,0,1-6.4-2.42c-19.52-8.95-49.81-9.73-67.57,3.58a59.14,59.14,0,0,0-17.25,21.06A118.47,118.47,0,0,0,435,115.11a184.27,184.27,0,0,0-3,21.68c-.75,9.28-1.87,18.52-3.1,27.76,1,5.75,3.42,11.3,6.15,16.39a166.66,166.66,0,0,0,13.05,19.94A102.4,102.4,0,0,0,463.37,218c3,2.63,6.15,5.13,9.29,7.63a53.15,53.15,0,0,1,4.76,3.83s.78.76.59.73c.12,0,.13-.18.23-.18s.49-.25.65-.3c1.67-.58,3.75-.15,5.44.12,2.73.43,5.41,1.1,8.08,1.76,2.16.54,4.34,1.19,6.54,1.52a77.82,77.82,0,0,0,12.5.32c10.16-.16,20.88-3.53,29.94-8.69,9.89-5.63,17-13.53,22.78-23.07a63.34,63.34,0,0,0,6.17-13.15,51,51,0,0,0,1.77-7C572.43,179.7,573.52,175.88,572.83,174.19Z"/><path class="cls-14" d="M475.72,264.69a75.33,75.33,0,0,0,9.9,2.89,85,85,0,0,0,21.26,2.5c1,0,2.15,0,3.31-.08a60.94,60.94,0,0,0,11.28-3.17A38.71,38.71,0,0,0,532,261.19c.93-.87,1.78-1.81,2.63-2.76a.19.19,0,0,1,.11-.12h0l.12-.13a.19.19,0,0,1,.16-.08s-1.15-.09-1.11-.13.11-.95.16-1c-6.69-4.21-11.35-8.22-14.38-14.72-4.18-9-4.75-24.59-3.92-34.34.19-2.2-15.87-6.11-17.83-6.51a35,35,0,0,0-15.62.23c-2.94,15.61-2.64,32-8,47.07a42.73,42.73,0,0,1-7,12.22C470.17,262,472.85,263.58,475.72,264.69Z"/><path class="cls-14" d="M466.76,259.43l37.67-15.62,28.41,11.79s18.71,17.84-15.86,20.78C473.66,280.07,466.76,259.43,466.76,259.43Z"/><path class="cls-17" d="M471.93,215.38l.1,1.47a12.91,12.91,0,0,1,3,1.31l.86-.47A14.69,14.69,0,0,0,471.93,215.38Z"/><path d="M434.76,201.61c-11.22,3.26-18.26,14.93-19.67,25.2-1.53,11.18,2.05,22.44,7,32.73s11.21,20,15.6,30.49c3.09,7.37,6.27,17.19,1.48,24.49-4.22,6.41-12.85,10.44-20.86,8.62,12.77,8.24,30.39,9.44,44.31,3,24.94-11.53,28.59-38.13,17.27-59.64-4.08-7.75-9.2-15-13-22.92-1.26-2.65-2.38-5.47-2.19-8.36s3.33-7,6.3-7.86c3.28-1.23,3.35-3.45,4.92-5.33s1.7,2,1.64-.39l-.3-12a3.78,3.78,0,0,0-.43-2.05,4.36,4.36,0,0,0-2.35-1.45c-11.71-4.12-26.65-8-39.15-4.73Z"/><g class="cls-18"><g class="cls-19"><g class="cls-20"><path class="cls-21" d="M489.74,229.77A93.81,93.81,0,0,1,479.28,225c1-7.82,1.61-15.7,3.06-23.39a35,35,0,0,1,15.62-.23c2,.4,18,4.31,17.83,6.51-.65,7.7-.43,19,1.75,27.89a95,95,0,0,1-27.8-6"/></g></g></g><path class="cls-14" d="M558.59,149.36A10.2,10.2,0,0,1,569.45,146a13.25,13.25,0,0,1,8.32,8.16c3.48,9.37-1.09,21-9.06,26.53a24,24,0,0,1-15.49,4.14"/><path class="cls-15" d="M573.51,162.14a23.6,23.6,0,0,0-.44-5.56c-.63-3.13-1.2-6.15-5.05-5.07-2.63.74-5.15,3-6.86,5.07-3,3.65-5.35,7.31-6,12.12a2.8,2.8,0,0,0,0,1.41c.43,1.12,1.93,1.31,3.13,1.15s2.54-.41,3.47.35c2.32,1.91-.65,5.89-2,7.39a47.79,47.79,0,0,0,4.79,0,8,8,0,0,0,4-2.65,26.05,26.05,0,0,0,5-14.2"/><rect class="cls-1" x="549.95" y="156.57" width="29.19" height="17.04" transform="translate(287.56 683.99) rotate(-78.21)"/><rect class="cls-1" x="549.95" y="156.57" width="29.19" height="17.04" transform="translate(287.56 683.99) rotate(-78.21)"/><path class="cls-14" d="M457.38,95.21a31.69,31.69,0,0,1,12.21-12.13c13.74-7.63,30.44-9.26,45.8-7,11.76,1.74,24.32,5.74,32.66,14.65,7.74,8.27,11.15,21,12.91,31.93,2.61,16.2,1,32.3.24,48.61-.46,10.09-1.77,20.43-6.59,29.31-9.85,18.15-32,27.55-50.93,26-11.14-.92-20.5-8.72-29.35-15.87-10.52-8.5-14.25-20.69-17.81-33.37a192.88,192.88,0,0,1-6.46-42.86c-.63-13,.63-27.73,7.32-39.29"/><path class="cls-14" d="M459.5,148.48c-5.52-15.08-26.26-10.41-30,3a22.61,22.61,0,0,0,2.05,16.43,29.16,29.16,0,0,0,33,14.49"/><path class="cls-15" d="M435.9,155a23.44,23.44,0,0,1,1.57-5.35c1.25-2.93,2.43-5.78,6-3.93,2.42,1.26,4.42,4,5.67,6.36,2.22,4.19,3.74,8.26,3.44,13.1a2.86,2.86,0,0,1-.34,1.36c-.65,1-2.16.89-3.3.5s-2.41-.93-3.48-.37c-2.65,1.39-.56,5.9.5,7.65a46.66,46.66,0,0,1-4.68-1,7.94,7.94,0,0,1-3.4-3.41,26,26,0,0,1-2-14.92"/><rect class="cls-1" x="435.55" y="145.12" width="17.04" height="29.19"/><rect class="cls-1" x="435.55" y="145.12" width="17.04" height="29.19"/><path d="M554.14,144.07c-.73,1.75-3,3.08-4.68,3.83a4.12,4.12,0,0,0-2.83-1.37c-3-.08-5.63,3.83-5.75,8.73s2.24,8.94,5.3,9,5.62-3.83,5.75-8.74a13.18,13.18,0,0,0-.83-5c2-2,3-6.46,3-6.46"/><path d="M501.68,141.2c-.73,1.74-3,3.07-4.69,3.83a4,4,0,0,0-2.82-1.37c-3.06-.08-5.63,3.83-5.76,8.73s2.25,8.94,5.3,9,5.63-3.83,5.75-8.73a12.74,12.74,0,0,0-.83-5c2-2,3.05-6.46,3.05-6.46"/><circle class="cls-22" cx="541.71" cy="151.64" r="1.84"/><circle class="cls-23" cx="451.83" cy="175.32" r="1.68"/><path class="cls-24" d="M519,148.49a52.66,52.66,0,0,1,4.67,11.06c1.2,3.81,2.24,7.61,3.66,11.22.16.45.35.9.54,1.34l.59,1.37a16.31,16.31,0,0,1,1,3.06,7.74,7.74,0,0,1-.05,3.45,6.08,6.08,0,0,1-.72,1.65,6.88,6.88,0,0,1-1.11,1.33,10.17,10.17,0,0,1-2.73,1.76,12.05,12.05,0,0,1-3,.93,11.67,11.67,0,0,1-6.05-.53,13.87,13.87,0,0,0,5.76-.64,12.35,12.35,0,0,0,2.55-1.19,9,9,0,0,0,2.1-1.69,4.39,4.39,0,0,0,1.1-2.12,6,6,0,0,0-.12-2.47,15.07,15.07,0,0,0-.92-2.58l-.6-1.37c-.21-.46-.41-.93-.58-1.41a76.63,76.63,0,0,1-3.23-11.61C521,156.17,520.16,152.34,519,148.49Z"/><path d="M504.55,146.56a13.73,13.73,0,0,1-3.65.54,2.54,2.54,0,0,1-.72-.16,4.86,4.86,0,0,1-.68-.32c-.53-.29-1.09-.61-1.65-1-.29-.17-.57-.35-.89-.52a4.24,4.24,0,0,0-1.14-.44,3.64,3.64,0,0,0-1.41,0,5.35,5.35,0,0,0-1.09.35,5.27,5.27,0,0,0-1.87,1.33,2.9,2.9,0,0,0-.63,1.06,1.58,1.58,0,0,0,0,1.21h.27a2.1,2.1,0,0,1,1.35-.86,11.93,11.93,0,0,1,1.58-.31,7.47,7.47,0,0,1,.77-.08c.24,0,.48,0,.51,0a10.21,10.21,0,0,1,1.55.39c.6.19,1.19.43,1.83.66a4.75,4.75,0,0,0,1.14.28,3.81,3.81,0,0,0,1.18-.08,7,7,0,0,0,2-.78c.58-.33,1.12-.69,1.66-1.06Z"/><path d="M557.75,148.44c-.54.37-1.08.73-1.66,1.06a7,7,0,0,1-2,.78,3.87,3.87,0,0,1-1.19.08,4.67,4.67,0,0,1-1.13-.28c-.64-.23-1.23-.47-1.83-.66a10.21,10.21,0,0,0-1.55-.39s-.28,0-.51,0a7.19,7.19,0,0,0-.77.08,11.93,11.93,0,0,0-1.58.31,2.1,2.1,0,0,0-1.35.86H544a1.58,1.58,0,0,1,0-1.21,2.9,2.9,0,0,1,.63-1.06,5.23,5.23,0,0,1,1.86-1.33,5.65,5.65,0,0,1,1.1-.35,3.64,3.64,0,0,1,1.41,0,4.24,4.24,0,0,1,1.14.44c.32.17.6.34.89.52.56.34,1.12.66,1.65.95a5.57,5.57,0,0,0,.68.32,2.54,2.54,0,0,0,.72.16,13.66,13.66,0,0,0,3.64-.54Z"/><circle class="cls-22" cx="489.24" cy="149.18" r="1.84"/><path d="M541.36,85c1,12.46-30.6,28.85-35.11,31.31-12,6.53-34.76,22.3-50,25.82-1.87.44,5.05,3.16,3.21,2.61-2.37-.7-4.2-2.53-6.3-3.84-4.09-2.55-5.11-3-9.64-1.37-5.64-21.2,3.44-43.45,20.8-56.58,11.08-8.37,20.17-13.59,33.88-15,6.92-.73,31.43,4.52,35.52,7.8C538.4,79.45,541,80.6,541.36,85Z"/><path d="M539,86.35c-.24,6.56,2,13,5.38,18.67s7.73,10.61,12.08,15.53a25.27,25.27,0,0,0,4.68,4.45,21,21,0,0,0,9.25,2.89c.39,0,.88.06,1.09-.29a1,1,0,0,0,.07-.63A68.05,68.05,0,0,0,560.07,95a25.14,25.14,0,0,0-7.2-7.5c-3.93-2.42-8.69-2.94-13.28-3.41l0,1.27"/><path d="M454.53,142a59.32,59.32,0,0,1,3.69,14.16c.26,1.9.44,3.88,1.47,5.5-.11-8.12,3.86-22,11.31-25.24"/><path d="M560.4,138.26s-8.14-17.73-15.8-13-4.94,5.94-4.94,5.94Z"/><path d="M477.33,137.87s10-17.58,18.16-12.77,5.09,6,5.09,6Z"/><path class="cls-17" d="M459.2,120.68s68-25.08,78.2-37.18C537.4,83.5,514.86,119.57,459.2,120.68Z"/><path class="cls-17" d="M542.32,86.77s11.07,22.14,23.37,34C565.69,120.8,541.91,109.73,542.32,86.77Z"/><path class="cls-17" d="M531.25,79.81s-36.07-11.07-63.94,10.24c0,0-9.43,6.56-10.25,10.25C457.06,100.3,482.48,79.4,531.25,79.81Z"/><path class="cls-17" d="M541.09,81.45s20.91,0,27.06,23.77C568.15,105.22,555.85,87.59,541.09,81.45Z"/><path class="cls-17" d="M441.08,119.87s42.17-15.13,53.09-27.25C494.17,92.62,455.11,107.64,441.08,119.87Z"/><path class="cls-17" d="M443.12,102.73s9.2-26.11,27.51-25.35C470.63,77.38,455.66,82.77,443.12,102.73Z"/><path class="cls-17" d="M447,208.72c-5.72,1.34-11.07,4.37-14.35,8.89a19.38,19.38,0,0,0-3.27,7.54,28,28,0,0,0-.28,8.29,44.93,44.93,0,0,0,1.74,8.27,76,76,0,0,0,3,8c1.14,2.63,2.43,5.22,3.79,7.77s2.78,5.07,4.27,7.6c3,5,6.07,10.14,8.64,15.64.64,1.38,1.24,2.77,1.8,4.22a45.32,45.32,0,0,1,2.83,13.63,29.89,29.89,0,0,1-1,9.38,23.11,23.11,0,0,1-1.77,4.47,18.16,18.16,0,0,1-2.79,3.88,28.28,28.28,0,0,1-3.42,3.16,29.83,29.83,0,0,1-3.86,2.49,21.3,21.3,0,0,1-8.61,2.6,28.1,28.1,0,0,0,13.48-10.2c.39-.57.77-1.14,1.1-1.73a20,20,0,0,0,.92-1.78,18.55,18.55,0,0,0,1.24-3.82,28.65,28.65,0,0,0,.4-8.18c-.8-11.27-7.47-21-13.22-31.29-1.47-2.57-2.94-5.19-4.29-7.87s-2.57-5.44-3.67-8.26a69.5,69.5,0,0,1-2.82-8.66,48.63,48.63,0,0,1-1.35-9.1,28.28,28.28,0,0,1,1-9.27,20.76,20.76,0,0,1,4.46-8.21,21.28,21.28,0,0,1,7.42-5.35A24.84,24.84,0,0,1,447,208.72Z"/><path class="cls-17" d="M459.09,274.05a40.45,40.45,0,0,1,6.56,12.34,35.17,35.17,0,0,1,1.66,14.24,27.86,27.86,0,0,1-5.12,13.63,22.79,22.79,0,0,1-5.16,5.12,17.2,17.2,0,0,1-6.48,2.87,28.92,28.92,0,0,0,8.28-10.08,34.38,34.38,0,0,0,3.49-12,51.39,51.39,0,0,0-.5-12.83C461.17,283,460.09,278.6,459.09,274.05Z"/><path class="cls-17" d="M451.12,224.25a15,15,0,0,0,1.1,6,37.61,37.61,0,0,0,2.7,5.43c2.09,3.49,4.5,6.8,6.89,10.19,1.2,1.7,2.39,3.41,3.52,5.26s2.13,3.64,3.11,5.51a108.2,108.2,0,0,1,5.24,11.5,110.21,110.21,0,0,1,3.92,12A81.93,81.93,0,0,1,480,292.6a42.89,42.89,0,0,1-.38,12.84,22.54,22.54,0,0,1-5.54,11.37,26.47,26.47,0,0,0,3-11.68,52.05,52.05,0,0,0-1.1-11.92,120.86,120.86,0,0,0-3.06-11.75c-1.17-3.9-2.5-7.74-3.92-11.55s-3-7.57-4.69-11.27c-.82-1.86-1.72-3.7-2.61-5.51s-1.94-3.53-3-5.33A94.86,94.86,0,0,1,453,236.64a32.07,32.07,0,0,1-1.92-6.08A13.58,13.58,0,0,1,451.12,224.25Z"/><path class="cls-17" d="M448.25,210.72a30.82,30.82,0,0,0-3.37,6.68,24,24,0,0,0-1.23,7,43.89,43.89,0,0,0,2.36,14c1.44,4.67,3.25,9.33,5,14.1a86.18,86.18,0,0,1,4.24,14.78c-2.79-4.36-5.42-8.67-7.85-13.18a80.77,80.77,0,0,1-6.16-14.23c-1.53-5-2.44-10.51-1.47-16a21,21,0,0,1,2.94-7.61A19.39,19.39,0,0,1,448.25,210.72Z"/><path class="cls-23" d="M434,201.48,469,228.05l4.39-1.7s-30.53-25.34-33-36.89Z"/><path class="cls-25" d="M498.19,202S496,213.26,503,214.88s10-9.45,10-9.45Z"/><path class="cls-25" d="M512.85,205.7s1.76-13-4.69-13.24c-7.19-.22-10.13,9.83-10.13,9.83Z"/><path class="cls-26" d="M498.68,202.06a6.33,6.33,0,0,0,.42,3.59,7.23,7.23,0,0,0,5.5,4.26,7.16,7.16,0,0,0,7.47-3.44,6.5,6.5,0,0,0,.71-2,7.16,7.16,0,0,0-14.1-2.4Z"/></g></g></g></svg>