<svg id="Layer_1" data-name="Layer 1" xmlns="http://www.w3.org/2000/svg" xmlns:xlink="http://www.w3.org/1999/xlink" viewBox="0 0 381 372"><defs><style>.cls-1,.cls-12{fill:none;}.cls-2{fill:#cdc4ff;}.cls-3{clip-path:url(#clip-path);}.cls-4{fill:#d69377;}.cls-5{fill:#3e3e3e;}.cls-6{fill:#6751ee;}.cls-7{fill:#d49176;}.cls-8{fill:#503fad;}.cls-9{opacity:0.16;}.cls-10{clip-path:url(#clip-path-2);}.cls-11{fill:#d45b51;}.cls-12{stroke:#ac523f;stroke-miterlimit:10;}.cls-13{fill:#231f20;}.cls-14{clip-path:url(#clip-path-4);}.cls-15{opacity:0.6;}.cls-16{fill:#d47a56;}.cls-17{fill:#8976eb;}.cls-18{fill:#ac523f;}.cls-19{fill:#ffeee5;}.cls-20{fill:#733e37;}.cls-21{fill:#fff;}.cls-22{fill:#f38274;}.cls-23{fill:#d7d0ff;}.cls-24{fill:#ebe7fd;}</style><clipPath id="clip-path"><path class="cls-1" d="M-11.89,182.88c-15.35,56-2.2,120.19,40.14,160.73,38.1,36.52,77.14,40.85,120.67,46.92,54.55,7.55,101.94,2.67,162-16.46,52.34-16.68,87.84-76,80.76-129.56-7.48-55.89-58.25-95-105-127.83C237.08,82,167,32.3,101.38,42.45,45.41,51.11,1.25,134.86-11.89,182.88Z"/></clipPath><clipPath id="clip-path-2"><rect class="cls-1" x="169.47" y="176.74" width="27.94" height="25.74"/></clipPath><clipPath id="clip-path-4"><rect class="cls-1" x="170.41" y="177.05" width="27.63" height="25.35"/></clipPath></defs><path class="cls-2" d="M18.26,239.87c-11,43.68,1.81,93.27,40.85,121.29C88.08,382,127.2,388.79,165,391.31c47.31,3.15,97.29.16,139-20.46s53.61-66.36,45.42-107.06c-8.58-42.5-37.08-55-78.72-77.92-44.08-24.25-105.95-59.59-162.07-48.65C60.76,146.67,27.7,202.48,18.26,239.87Z"/><g class="cls-3"><polygon class="cls-4" points="104.29 260.96 71.39 360.93 57.54 393.44 84.93 402.1 136.88 283.55 104.29 260.96"/><path class="cls-4" d="M290.77,254.43c.39.63-17,44.86-17,44.86s-9.6-30.3-23-58.09c-4.72,2.44-9.37,4.88-14.09,7.32l-16,8.27c1.18,3.62,3.39,10.31,6.69,18.18,2,4.65,4.72,10.16,6.61,14.49,2.6,5.9,4.81,11,6.06,13.61,6.7,13.78,21.26,47.55,32.91,55.81,8.42,6,21.56-2.6,23.53-10.23,3.54-13.85,5.36-24.8,6.93-47.7.63-8.82.71-17.71.94-26.53.08-2.52.16-5.12.24-7.63,0-1.26.08-2.44.08-3.7,0-.87.16-2.76.24-3.47-4.81-1.41-9-4.72-14.25-5.27C290.69,254.43,290.69,254.43,290.77,254.43Z"/><path class="cls-5" d="M168.13,225.93c-1.57-.78-3.07-1.73-4.57-2.59-.23-.08,0-.4.16-.32a51.62,51.62,0,0,0,4.57,2.6C168.52,225.7,168.37,226,168.13,225.93Zm40.62-5.74c-.16.15-.32.47-.55.63a17.48,17.48,0,0,1-2.92,2.91c-.15.16-.39-.16-.15-.32a16.13,16.13,0,0,0,2.83-2.83.08.08,0,0,1,.08-.08h0l.08-.08.08-.08.07-.07c.08-.08.16-.24.32-.32a.14.14,0,0,1,.23,0A.44.44,0,0,1,208.75,220.19Z"/><path class="cls-6" d="M230.71,338.57c-1.81-7.32-1-16.21.63-24.24,1.44-7.33,1.57-14.54,2.24-22a13.09,13.09,0,0,0,.91,1.74,152.11,152.11,0,0,0,35-17.55c-5.71-27.06-27.79-49.85-54.49-57.09l4.67,1.75s-2.05,16.37-33.93,16.37S152,221.76,152,221.76l5.69-2.38a16.57,16.57,0,0,0-1.91.41,95.66,95.66,0,0,0-35.66,18C110,246,101.85,258.84,96,270.33a184.52,184.52,0,0,0,39.3,24.54c2.13,13.55,5.55,26.8,3.68,40.4a58.43,58.43,0,0,0,.05,9l-12.89,33.71,2.68.32.24-.71,2.59-.08,0-.08,89.62-.63h2c-1,1-2.08,2-3.07,3,6.53-.47,13.38-1.1,20.31-2a11.28,11.28,0,0,1-.56-1.1h4.18l.31.79c.87-.08,1.73-.24,2.6-.32l-15.44-34.72C231.49,341.16,231,339.91,230.71,338.57Z"/><path class="cls-7" d="M185.76,237.58c31.88,0,33.93-16.37,33.93-16.37L215,219.46l-30.36-11.4-27,11.32L152,221.76S153.8,237.66,185.76,237.58Z"/><path class="cls-8" d="M136.88,276c-.08,4.56-.24,9.21-.31,13.77a71.58,71.58,0,0,1-.4,7.16c-.08.95.87,2.36.71,3.31-1-5.12-3-9.52-3.23-10.71A130.57,130.57,0,0,0,136.88,276Z"/><path class="cls-7" d="M166.79,223.57A57.67,57.67,0,0,0,174,225.7a61.15,61.15,0,0,0,15.59,1.81c.79,0,1.57,0,2.44-.08a43.05,43.05,0,0,0,8.26-2.36A28.79,28.79,0,0,0,208,221a15,15,0,0,0,1.89-2,.08.08,0,0,1,.08-.08h0l.07-.08.08-.08-.78-.08a2.73,2.73,0,0,0,.07-.71c-4.88-3.07-8.26-6-10.54-10.78-3.07-6.53-3.47-18-2.84-25.11.16-1.57-11.57-4.49-13.06-4.72a26.63,26.63,0,0,0-11.42.15c-2.12,11.42-1.89,23.38-5.9,34.4a30.48,30.48,0,0,1-5.12,9C162.78,221.6,164.74,222.78,166.79,223.57Z"/><g class="cls-9"><g class="cls-10"><g class="cls-10"><path class="cls-11" d="M177.1,198a83.45,83.45,0,0,1-7.63-3.46c.71-5.75,1.18-11.5,2.2-17.09a25.43,25.43,0,0,1,11.42-.15c1.41.31,13.14,3.15,13.06,4.72a70.29,70.29,0,0,0,1.26,20.39A66.71,66.71,0,0,1,177.1,198"/></g></g></g><path class="cls-8" d="M168.76,301.11s26.29,4.95,44.16,0"/><path class="cls-4" d="M329.49,217.9a2.69,2.69,0,0,0-4.48-.39c-2,2.83-3.94,5.75-5.91,8.58a22.67,22.67,0,0,1-2.2,3.23c-.24.31-.87,1.18-1.34,1.1-2.44,0-.31-4.57.08-5.67.79-2,1.5-4,2.28-6.06,1-2.83,2.05-5.74,3.07-8.58.63-1.81,2.21-4.56.24-6.06a2.6,2.6,0,0,0-4,1.1c-.31.95-.62,1.81-.94,2.76a6.68,6.68,0,0,0-.47.78c-1.18,3.15-2.52,6.3-3.94,9.37-.71,1.58-1.41,3.07-2.12,4.65-.32.63-.95,3.85-2.05,3.46-1.34-.47,0-4.33.08-5.2.24-2.44.47-4.95.79-7.4.31-3.3.78-6.61,1.1-9.83.23-2.05,1.34-6-1.34-6.85a2.65,2.65,0,0,0-3.38,2,3.31,3.31,0,0,0-.24.55,123.16,123.16,0,0,0-2.83,14.16c-.4,2.37-.79,4.65-1.26,7-.24,1.18-.56,2.36-.87,3.54-.16.47-.24,1.81-.94,1.66s-.79-1.5-.87-2c-.16-1.34.16-2.76-.08-4.1-.31-2.2-.63-4.48-.94-6.76-.4-3.15-.87-6.3-1.26-9.37-.24-1.89.23-5.12-2-5.91a2.81,2.81,0,0,0-3.62,2.6l.87,17.87c.15,2.6.39,5.27.47,7.87a33.88,33.88,0,0,1-.24,4c-.16,1.18-.47,2.83-1.49,1.33a15.68,15.68,0,0,1-1.58-3.3,17.34,17.34,0,0,0-2.83-5,3.26,3.26,0,0,0-2.76-1.26,3.44,3.44,0,0,0-2.67,2.75v.16a9.29,9.29,0,0,0,.63,4.17c1.41,4.33,3.38,8.58,4.48,13.07.63,2.6.71,5,1.58,7.56.71,2,2.75,4,3.78,5.82,6.14.63,8.18,3.86,13.93,5.59h0s5-2.6,6.53-4.33a32.51,32.51,0,0,0,3.86-5.51,30.28,30.28,0,0,0,4-12.67h0a11.85,11.85,0,0,1,.32-2.36,8.54,8.54,0,0,1,.78-1.66c1.89-3.07,3.86-6,6-8.89C327.13,223.73,330.75,220.42,329.49,217.9Z"/><path class="cls-12" d="M274,298.59s-3.38,9.68-2.12,18.73"/><path d="M237.87,158v-.08a2.61,2.61,0,0,1,.32-1.73,1.84,1.84,0,0,1,.47-.39,108.52,108.52,0,0,1,1.18-12.28c-.16-2.68-.24-5.35-.4-8-2.2-8.74-.55-18.42-2.59-27.16-2.29-9.91-11.81-22.43-23.54-23-1.65-.08-3.3.08-5-.16a19.06,19.06,0,0,1-4.64-1.73c-14.09-6.45-36-7-48.73,2.6a41.76,41.76,0,0,0-12.43,15.19,92.47,92.47,0,0,0-4.1,14.25,131.2,131.2,0,0,0-2.12,15.66c-.55,6.69-1.34,13.38-2.21,20A39,39,0,0,0,138.53,163,114.44,114.44,0,0,0,148,177.37a74.59,74.59,0,0,0,11,12.35c2.2,1.89,4.41,3.7,6.69,5.51a39.1,39.1,0,0,1,3.46,2.76s.55.55.4.55c.08,0,.08-.16.15-.16a1.32,1.32,0,0,0,.48-.23,9.33,9.33,0,0,1,3.93.08c2,.31,3.94.78,5.83,1.25,1.57.4,3.15.87,4.72,1.11a49.6,49.6,0,0,0,9.05.23,46.21,46.21,0,0,0,21.57-6.29c7.16-4.1,12.28-9.76,16.45-16.61a45.67,45.67,0,0,0,4.49-9.53,37,37,0,0,0,1.26-5C237.63,161.94,238.42,159.18,237.87,158Z"/><path class="cls-7" d="M167.81,223.26a54.67,54.67,0,0,0,7.17,2,62.88,62.88,0,0,0,15.35,1.81c.71,0,1.57,0,2.36-.07a48.1,48.1,0,0,0,8.11-2.29,26.31,26.31,0,0,0,7.63-4.09c.71-.63,1.26-1.34,1.89-2a.08.08,0,0,1,.08-.08h0l.08-.08.08-.07-.79-.08c0-.08.08-.71.08-.71-4.8-3.07-8.19-5.91-10.39-10.63-3-6.45-3.47-17.71-2.84-24.79.16-1.58-11.49-4.41-12.83-4.73a26,26,0,0,0-11.25.16c-2.13,11.26-1.89,23.06-5.83,33.93a29.39,29.39,0,0,1-5,8.81C163.8,221.37,165.77,222.47,167.81,223.26Z"/><path class="cls-7" d="M161.36,219.48l27.16-11.26,20.46,8.5s13.54,12.91-11.41,15C166.32,234.36,161.36,219.48,161.36,219.48Z"/><path class="cls-13" d="M165.06,187.68l.08,1a10.75,10.75,0,0,1,2.2,1l.63-.32A11.28,11.28,0,0,0,165.06,187.68Z"/><path d="M138.3,177.76c-8.11,2.36-13.15,10.78-14.17,18.18-1.1,8,1.49,16.22,5,23.62s8.1,14.4,11.25,22c2.21,5.35,4.49,12.44,1.1,17.71-3.07,4.64-9.28,7.56-15,6.22a34.09,34.09,0,0,0,32,2.2c18-8.34,20.62-27.47,12.43-43.06-2.91-5.58-6.61-10.86-9.36-16.53a11.81,11.81,0,0,1-1.58-6.06,7.61,7.61,0,0,1,4.57-5.66c2.36-.87,2.44-2.52,3.54-3.86s1.26,1.42,1.18-.32c-.08-2.91-.16-5.74-.23-8.65a2.55,2.55,0,0,0-.32-1.5,3.15,3.15,0,0,0-1.73-1c-8.42-3-19.21-5.75-28.26-3.39C138.53,177.68,138.38,177.68,138.3,177.76Z"/><g class="cls-9"><g class="cls-14"><g class="cls-14"><path class="cls-11" d="M178,198.07a66.25,66.25,0,0,1-7.56-3.47c.71-5.66,1.18-11.33,2.21-16.84a25.85,25.85,0,0,1,11.25-.16c1.42.32,13,3.07,12.83,4.73A68.86,68.86,0,0,0,198,202.48a69.62,69.62,0,0,1-20-4.41"/></g></g></g><path class="cls-7" d="M227.64,140.06a7.24,7.24,0,0,1,7.87-2.37,9.49,9.49,0,0,1,6,5.91c2.52,6.77-.79,15.19-6.53,19.13a17.61,17.61,0,0,1-11.18,3"/><g class="cls-15"><path class="cls-16" d="M238.42,149.27a17.59,17.59,0,0,0-.31-4c-.48-2.28-.87-4.41-3.62-3.7a11.51,11.51,0,0,0-5,3.7A16.67,16.67,0,0,0,225.2,154a2.2,2.2,0,0,0,0,1c.31.79,1.41,1,2.28.87s1.81-.32,2.52.23c1.65,1.34-.47,4.25-1.5,5.36a26.5,26.5,0,0,0,3.47,0,6.16,6.16,0,0,0,2.91-1.89,20,20,0,0,0,3.54-10.31"/></g><rect class="cls-1" x="221.36" y="145.22" width="21.1" height="12.28" transform="translate(36.35 347.44) rotate(-78.21)"/><rect class="cls-1" x="221.36" y="145.22" width="21.1" height="12.28" transform="translate(36.35 347.44) rotate(-78.21)"/><path class="cls-7" d="M154.59,101a22.91,22.91,0,0,1,8.82-8.73c9.91-5.51,22-6.69,33.06-5C205,88.5,214,91.41,220,97.79c5.59,6,8,15.19,9.29,23.06,1.89,11.73.71,23.3.16,35.11-.32,7.24-1.26,14.72-4.72,21.17C217.64,190.2,201.58,197,188,195.86c-8-.63-14.8-6.29-21.18-11.41-7.56-6.14-10.31-15-12.83-24.09a137.37,137.37,0,0,1-4.64-30.93c-.48-9.53.47-20.07,5.27-28.42"/><path class="cls-7" d="M156.09,139.43c-4-10.87-19-7.48-21.65,2.2a16.54,16.54,0,0,0,1.5,11.89A21.13,21.13,0,0,0,159.79,164"/><g class="cls-15"><path class="cls-16" d="M139.08,144.15a21.32,21.32,0,0,1,1.11-3.86c.94-2.12,1.73-4.17,4.33-2.83a11.43,11.43,0,0,1,4.09,4.56,17.42,17.42,0,0,1,2.44,9.45,2.38,2.38,0,0,1-.24,1c-.47.71-1.57.63-2.36.4a3.15,3.15,0,0,0-2.52-.24c-1.89,1-.39,4.25.4,5.51a25.61,25.61,0,0,1-3.39-.71A6.1,6.1,0,0,1,140.5,155a19.23,19.23,0,0,1-1.42-10.86"/></g><rect class="cls-1" x="138.85" y="136.99" width="12.28" height="21.1"/><rect class="cls-1" x="138.85" y="136.99" width="12.28" height="21.1"/><circle class="cls-17" cx="150.58" cy="158.79" r="1.18"/><path class="cls-18" d="M199.06,139.43a38.65,38.65,0,0,1,3.39,7.95c.86,2.75,1.65,5.51,2.68,8.1.15.32.23.63.39,1l.39,1a10.19,10.19,0,0,1,.71,2.21,6.62,6.62,0,0,1,0,2.51,4.79,4.79,0,0,1-1.34,2.13,7.74,7.74,0,0,1-2,1.26,7.14,7.14,0,0,1-2.2.63,8.12,8.12,0,0,1-4.33-.39,9.35,9.35,0,0,0,4.17-.48,7.52,7.52,0,0,0,1.81-.86,7.91,7.91,0,0,0,1.5-1.18,3.18,3.18,0,0,0,.79-1.5A4.67,4.67,0,0,0,205,160c-.16-.63-.4-1.26-.63-1.89l-.4-.94a6.19,6.19,0,0,1-.39-1,55.45,55.45,0,0,1-2.36-8.34C200.48,144.94,199.93,142.18,199.06,139.43Z"/><path d="M215.2,93.61c.71,9-22.12,20.78-25.35,22.6-8.65,4.72-25.11,16-36,18.65-1.33.32,3.62,2.28,2.29,1.89-1.74-.47-3-1.81-4.57-2.76-3-1.81-3.7-2.12-6.93-1-4.09-15.27,2.52-31.33,15-40.85,8-6.06,14.56-9.84,24.4-10.86,5-.56,22.67,3.22,25.66,5.58C213.08,89.6,215,90.47,215.2,93.61Z"/><path d="M213.55,94.56A25.65,25.65,0,0,0,217.4,108a75.43,75.43,0,0,0,8.74,11.18,16.44,16.44,0,0,0,3.39,3.22,15.23,15.23,0,0,0,6.69,2.13c.31,0,.63,0,.78-.24a1,1,0,0,0,.08-.47,49,49,0,0,0-8.34-23.06,18.83,18.83,0,0,0-5.2-5.43c-2.83-1.74-6.29-2.13-9.6-2.44v.94"/><path d="M152.54,134.7a41.55,41.55,0,0,1,2.68,10.24,9.57,9.57,0,0,0,1,3.93c-.08-5.82,2.76-15.9,8.19-18.18"/><path class="cls-13" d="M155.93,119.35s49-18.1,56.44-26.84C212.37,92.51,196.07,118.57,155.93,119.35Z"/><path class="cls-13" d="M215.91,94.87s8,16,16.84,24.56C232.75,119.43,215.59,111.48,215.91,94.87Z"/><path class="cls-13" d="M207.88,89.84s-26-8-46.13,7.39c0,0-6.77,4.73-7.4,7.4C154.35,104.63,172.69,89.6,207.88,89.84Z"/><path class="cls-13" d="M215,91.1s15.12,0,19.53,17.15C234.49,108.18,225.67,95.5,215,91.1Z"/><path class="cls-13" d="M142.86,118.8s30.46-10.94,38.34-19.68C181.12,99.12,152.94,110,142.86,118.8Z"/><path class="cls-13" d="M144.28,106.44s6.61-18.81,19.84-18.26C164.12,88.1,153.33,92,144.28,106.44Z"/><path class="cls-13" d="M147.11,182.88a17.83,17.83,0,0,0-10.39,6.45,13.87,13.87,0,0,0-2.36,5.43,22.11,22.11,0,0,0-.24,6,31.45,31.45,0,0,0,1.26,6c.63,2,1.34,3.93,2.13,5.82a53.57,53.57,0,0,0,2.75,5.59c1,1.81,2.05,3.62,3.07,5.51a126.92,126.92,0,0,1,6.22,11.26c.48,1,.87,2,1.34,3.07s.71,2.12,1,3.22a30.84,30.84,0,0,1,1,6.62,21.78,21.78,0,0,1-.71,6.77,16.42,16.42,0,0,1-1.26,3.22,14.24,14.24,0,0,1-2.05,2.84,21.76,21.76,0,0,1-2.44,2.28,20.37,20.37,0,0,1-2.75,1.81,16.42,16.42,0,0,1-6.22,1.89,20.42,20.42,0,0,0,9.76-7.32,11.81,11.81,0,0,0,.79-1.26,11.38,11.38,0,0,0,.63-1.26,11.06,11.06,0,0,0,.86-2.76,20.76,20.76,0,0,0,.32-5.9c-.55-8.11-5.35-15.11-9.53-22.59-1-1.89-2.12-3.78-3.07-5.67s-1.89-3.93-2.67-6a56.56,56.56,0,0,1-2-6.22,35.69,35.69,0,0,1-.94-6.53,21.46,21.46,0,0,1,.7-6.69,15,15,0,0,1,3.23-5.91,16.08,16.08,0,0,1,5.35-3.85A14.69,14.69,0,0,1,147.11,182.88Z"/><path class="cls-13" d="M155.85,230a29,29,0,0,1,4.72,8.89,24.92,24.92,0,0,1,1.18,10.31,20,20,0,0,1-3.7,9.84,16.24,16.24,0,0,1-3.7,3.7,11.77,11.77,0,0,1-4.64,2.05,21.63,21.63,0,0,0,6-7.24,25.94,25.94,0,0,0,2.52-8.66,33.57,33.57,0,0,0-.39-9.29C157.35,236.48,156.56,233.33,155.85,230Z"/><path class="cls-13" d="M150.1,194.13a11.94,11.94,0,0,0,.79,4.33,25.87,25.87,0,0,0,2,3.94c1.49,2.52,3.23,4.88,5,7.32.86,1.26,1.73,2.44,2.52,3.78s1.57,2.59,2.28,3.93a77.15,77.15,0,0,1,3.78,8.27,85.82,85.82,0,0,1,2.83,8.66,55.55,55.55,0,0,1,1.73,9,33.26,33.26,0,0,1-.23,9.29,16,16,0,0,1-4,8.18,18.77,18.77,0,0,0,2.13-8.42,39.11,39.11,0,0,0-.79-8.58,85.68,85.68,0,0,0-2.2-8.5C165,232.47,164,229.71,163,227s-2.12-5.43-3.38-8.11l-1.89-4c-.63-1.26-1.42-2.51-2.13-3.85a71.68,71.68,0,0,1-4.17-8,26.1,26.1,0,0,1-1.41-4.41A8.36,8.36,0,0,1,150.1,194.13Z"/><path class="cls-13" d="M148,184.37a21.52,21.52,0,0,0-2.44,4.8,15.85,15.85,0,0,0-.87,5,32.85,32.85,0,0,0,1.73,10.16c1,3.38,2.37,6.76,3.63,10.15a62.76,62.76,0,0,1,3.07,10.7c-2-3.14-3.94-6.21-5.67-9.52a63.12,63.12,0,0,1-4.49-10.23,24.6,24.6,0,0,1-1-11.5,13.91,13.91,0,0,1,2.12-5.51A12.35,12.35,0,0,1,148,184.37Z"/><path class="cls-6" d="M139,177.68l25.18,19.21,3.15-1.26s-21.25-18.58-24.79-26.84Z"/><path d="M230.31,134.78s-4-15.9-10.39-13.06-4.48,4.25-4.48,4.25Z"/><path d="M168.44,133.44s7.48-15,13.86-11,4,5,4,5Z"/><path d="M221.23,136.57c-.5,1.22-2.11,2.14-3.26,2.67a2.81,2.81,0,0,0-2-1c-2.13-.05-3.92,2.67-4,6.08s1.56,6.21,3.68,6.27,3.91-2.67,4-6.08a8.9,8.9,0,0,0-.58-3.48c1.42-1.38,2.12-4.5,2.12-4.5"/><path d="M184.75,134.57c-.51,1.22-2.11,2.14-3.26,2.67a2.8,2.8,0,0,0-2-1c-2.12-.06-3.91,2.66-4,6.07s1.56,6.21,3.69,6.27,3.91-2.67,4-6.08a9.08,9.08,0,0,0-.58-3.48c1.41-1.38,2.12-4.5,2.12-4.5"/><circle class="cls-19" cx="212.58" cy="141.84" r="1.28"/><path d="M186.74,138.3a9.55,9.55,0,0,1-2.54.38,1.93,1.93,0,0,1-.5-.11,4.47,4.47,0,0,1-.47-.22c-.37-.2-.76-.43-1.15-.67l-.62-.36a2.84,2.84,0,0,0-.79-.3,2.27,2.27,0,0,0-1,0,3.21,3.21,0,0,0-.76.24,3.64,3.64,0,0,0-1.3.92,2.11,2.11,0,0,0-.44.74,1.1,1.1,0,0,0,0,.84h.18a1.52,1.52,0,0,1,.94-.6,6.89,6.89,0,0,1,1.1-.21l.54-.06c.16,0,.33,0,.35,0a6.69,6.69,0,0,1,1.08.27c.41.13.82.3,1.27.46a3.79,3.79,0,0,0,.79.2,2.83,2.83,0,0,0,.83-.06,5.15,5.15,0,0,0,1.36-.54c.4-.23.78-.48,1.15-.74Z"/><path d="M223.74,139.61a13.49,13.49,0,0,1-1.16.74,5,5,0,0,1-1.35.54,2.83,2.83,0,0,1-.83.06,3.63,3.63,0,0,1-.79-.2c-.45-.16-.86-.33-1.27-.46a6.69,6.69,0,0,0-1.08-.27s-.19,0-.36,0l-.53.06a6.68,6.68,0,0,0-1.1.21,1.52,1.52,0,0,0-.94.6h-.19a1.15,1.15,0,0,1,0-.84,2.2,2.2,0,0,1,.44-.74,3.64,3.64,0,0,1,1.3-.92,3.21,3.21,0,0,1,.76-.24,2.27,2.27,0,0,1,1,0,2.66,2.66,0,0,1,.79.31c.22.11.42.23.62.35.39.24.78.47,1.15.67a4.47,4.47,0,0,0,.47.22,1.93,1.93,0,0,0,.5.11,9.6,9.6,0,0,0,2.54-.38Z"/><circle class="cls-19" cx="176.09" cy="140.13" r="1.28"/><path class="cls-16" d="M178.59,172.53s-1.82,11.24,8.91,13.86,13.74-8.33,13.74-8.33Z"/><path class="cls-16" d="M202.92,175.37a25.09,25.09,0,0,0-24.65-4.68S190.61,180.2,202.92,175.37Z"/><path class="cls-20" d="M202.85,176.32a17.21,17.21,0,0,1-6.63,6.33,12.1,12.1,0,0,1-7.45,1.21,11.14,11.14,0,0,1-6.71-3.7,20.13,20.13,0,0,1-4.25-9.18c15.83.14,24.68,5.13,25,5.33Z"/><path class="cls-21" d="M202.85,176.32s-.49.79-2.92,1.23-17.57-2.86-19.2-3.7a9,9,0,0,1-2.92-2.87c15.83.14,24.68,5.13,25,5.33Z"/><path class="cls-22" d="M196.22,182.65a12.1,12.1,0,0,1-7.45,1.21,11.14,11.14,0,0,1-6.71-3.7c3.16-1.07,10.18-2.64,14.16,2.49"/><path class="cls-23" d="M327.84,205.07a17.53,17.53,0,0,1,4.33,4,16.34,16.34,0,0,1,1.65,2.44,25.59,25.59,0,0,1,1.34,2.67,9.64,9.64,0,0,1,.55,1.42l.47,1.42a17,17,0,0,1,.56,2.91,18.35,18.35,0,0,1-.16,5.83,46.18,46.18,0,0,0-1.1-5.67,34.38,34.38,0,0,0-1.81-5.35,43.08,43.08,0,0,0-2.52-5A46.49,46.49,0,0,0,327.84,205.07Z"/><path class="cls-23" d="M333.51,201.61a17.49,17.49,0,0,1,4.33,4,16.87,16.87,0,0,1,1.65,2.44,29.11,29.11,0,0,1,1.34,2.68,10.37,10.37,0,0,1,.55,1.42l.47,1.41a17.14,17.14,0,0,1,.55,2.92,18,18,0,0,1-.15,5.82,46.2,46.2,0,0,0-1.11-5.67,32.4,32.4,0,0,0-1.81-5.35,41.57,41.57,0,0,0-2.52-5A35.91,35.91,0,0,0,333.51,201.61Z"/><path class="cls-24" d="M273.61,233.49a15.91,15.91,0,0,1-.24-5.83,20.11,20.11,0,0,1,.55-2.91,19.61,19.61,0,0,1,.95-2.83,6.35,6.35,0,0,1,.63-1.34,10.75,10.75,0,0,1,.7-1.34,20.43,20.43,0,0,1,1.66-2.44,20.87,20.87,0,0,1,4.25-4.09c-1.1,1.57-2.28,3.07-3.23,4.72a30.8,30.8,0,0,0-2.52,5,42.27,42.27,0,0,0-2.75,11Z"/><path class="cls-24" d="M267.15,231.92a16.13,16.13,0,0,1-.23-5.83,17.53,17.53,0,0,1,.55-2.91,19.66,19.66,0,0,1,.94-2.84A7.42,7.42,0,0,1,269,219a11.53,11.53,0,0,1,.71-1.34,18.57,18.57,0,0,1,1.65-2.44,21.18,21.18,0,0,1,4.25-4.1c-1.1,1.58-2.28,3.07-3.22,4.73a29.29,29.29,0,0,0-2.52,5,42.82,42.82,0,0,0-2.76,11Z"/></g></svg>