<svg id="Layer_1" data-name="Layer 1" xmlns="http://www.w3.org/2000/svg" xmlns:xlink="http://www.w3.org/1999/xlink" viewBox="0 0 381 372"><defs><style>.cls-1,.cls-12{fill:none;}.cls-2{fill:#cdc4ff;}.cls-3{clip-path:url(#clip-path);}.cls-4{fill:#d69377;}.cls-5{fill:#3e3e3e;}.cls-6{fill:#6751ee;}.cls-7{fill:#d49176;}.cls-8{fill:#503fad;}.cls-9{opacity:0.16;}.cls-10{clip-path:url(#clip-path-2);}.cls-11{fill:#d45b51;}.cls-12{stroke:#ac523f;stroke-miterlimit:10;}.cls-13{fill:#231f20;}.cls-14{clip-path:url(#clip-path-4);}.cls-15{opacity:0.6;}.cls-16{fill:#d47a56;}.cls-17{fill:#8976eb;}.cls-18{fill:#ac523f;}.cls-19{fill:#ffeee5;}.cls-20{fill:#733e37;}.cls-21{fill:#fff;}.cls-22{fill:#f38274;}.cls-23{fill:#d7d0ff;}.cls-24{fill:#ebe7fd;}</style><clipPath id="clip-path"><path class="cls-1" d="M-11.89,182.88c-15.35,56-2.2,120.19,40.14,160.73,38.1,36.52,77.14,40.85,120.67,46.92,54.55,7.55,101.94,2.67,162-16.46,52.34-16.68,87.84-76,80.76-129.56-7.48-55.89-58.25-95-105-127.83C237.08,82,167,32.3,101.38,42.45,45.41,51.11,1.25,134.86-11.89,182.88Z"/></clipPath><clipPath id="clip-path-2"><rect class="cls-1" x="182.07" y="177.53" width="27.94" height="25.74"/></clipPath><clipPath id="clip-path-4"><rect class="cls-1" x="181.44" y="177.84" width="27.63" height="25.35"/></clipPath></defs><path class="cls-2" d="M18.26,239.87c-11,43.68,1.81,93.27,40.85,121.29C88.08,382,127.2,388.79,165,391.31c47.31,3.15,97.29.16,139-20.46s53.61-66.36,45.42-107.06c-8.58-42.5-37.08-55-78.72-77.92-44.08-24.25-105.95-59.59-162.07-48.65C60.76,146.67,27.7,202.48,18.26,239.87Z"/><g class="cls-3"><polygon class="cls-4" points="242.6 284.34 294.55 402.89 321.94 394.23 308.09 361.72 275.19 261.75 242.6 284.34"/><path class="cls-4" d="M88.82,255.14c-5.25.55-9.44,3.86-14.25,5.27.08.71.24,2.6.24,3.47,0,1.26.08,2.44.08,3.7.08,2.51.16,5.11.24,7.63.23,8.82.31,17.71.94,26.53,1.57,22.9,3.39,33.85,6.93,47.7,2,7.63,15.11,16.23,23.53,10.23,11.65-8.26,26.21-42,32.91-55.81,1.25-2.61,3.46-7.71,6.06-13.61,1.89-4.33,4.61-9.84,6.61-14.49,3.3-7.87,5.51-14.56,6.69-18.18l-16-8.27c-4.72-2.44-9.37-4.88-14.09-7.32-13.4,27.79-23,58.09-23,58.09s-17.39-44.23-17-44.86C88.79,255.22,88.79,255.22,88.82,255.14Z"/><path class="cls-5" d="M211.19,226.41q2.35-1.18,4.57-2.6c.16-.08.39.24.16.32-1.5.86-3,1.81-4.57,2.59C211.11,226.79,211,226.49,211.19,226.41ZM170.73,221a.51.51,0,0,1-.07-.24.08.08,0,0,1,0,0,.13.13,0,0,1,.19,0c.16.08.24.24.32.32l.07.07.08.08.08.08h0a.07.07,0,0,1,.08.08,16.48,16.48,0,0,0,2.83,2.83c.24.16,0,.48-.15.32a17.86,17.86,0,0,1-2.92-2.91c-.23-.16-.39-.48-.55-.63Z"/><path class="cls-6" d="M147.88,343.24,132.44,378c.87.08,1.73.24,2.6.32l.31-.79h4.18a10.35,10.35,0,0,1-.56,1.1c6.93.9,13.78,1.53,20.31,2-1-1-2.07-2-3.07-3h2l89.62.63v.08l2.59.08.24.71,2.68-.32-12.89-33.71a57.54,57.54,0,0,0,.05-9c-1.87-13.6,1.55-26.85,3.68-40.4a184.67,184.67,0,0,0,39.3-24.54c-5.85-11.49-14-24.33-24.12-32.54a95.52,95.52,0,0,0-35.66-18,15.45,15.45,0,0,0-1.91-.41l5.69,2.38s-1.86,15.79-33.74,15.79S159.81,222,159.81,222l4.67-1.75c-26.7,7.24-48.78,30-54.49,57.09a152.38,152.38,0,0,0,35,17.55,13.09,13.09,0,0,0,.91-1.74c.67,7.46.8,14.67,2.24,22,1.63,8,2.44,16.92.63,24.24A32.18,32.18,0,0,0,147.88,343.24Z"/><path class="cls-7" d="M227.48,222.55l-5.64-2.38-27-11.32-30.36,11.4L159.79,222s2.05,16.37,33.93,16.37S227.48,222.55,227.48,222.55Z"/><path class="cls-8" d="M245.83,290.32c-.23,1.19-2.23,5.59-3.23,10.71-.16-.95.79-2.36.71-3.31q-.37-3.57-.4-7.16c-.07-4.56-.23-9.21-.31-13.77A133.71,133.71,0,0,0,245.83,290.32Z"/><path class="cls-7" d="M219,221.7a30.46,30.46,0,0,1-5.12-9c-4-11-3.78-23-5.9-34.4a26.5,26.5,0,0,0-11.42-.15c-1.49.23-13.22,3.15-13.06,4.72.63,7.11.23,18.58-2.84,25.11-2.28,4.78-5.66,7.71-10.54,10.78a2.85,2.85,0,0,0,.07.71l-.78.08.08.08.07.08h0a.07.07,0,0,1,.08.08,15.54,15.54,0,0,0,1.89,2,28.92,28.92,0,0,0,7.71,4.07,43.26,43.26,0,0,0,8.26,2.36c.87.08,1.65.08,2.44.08a61.15,61.15,0,0,0,15.59-1.81,59.67,59.67,0,0,0,7.21-2.13C214.74,223.57,216.7,222.39,219,221.7Z"/><g class="cls-9"><g class="cls-10"><g class="cls-10"><path class="cls-11" d="M202.38,198.79a66.78,66.78,0,0,1-20.31,4.41,70.15,70.15,0,0,0,1.26-20.39c-.08-1.57,11.65-4.41,13.06-4.72a25.31,25.31,0,0,1,11.42.15c1,5.59,1.49,11.34,2.2,17.09-2.48,1.28-5,2.43-7.63,3.46"/></g></g></g><path class="cls-8" d="M166.56,301.9c17.87,5,44.16,0,44.16,0"/><path class="cls-4" d="M53.77,226.26c2.14,2.89,4.11,5.82,6,8.89a8.39,8.39,0,0,1,.78,1.66,11.66,11.66,0,0,1,.32,2.36h0a30.42,30.42,0,0,0,4,12.67,32.85,32.85,0,0,0,3.86,5.51c1.53,1.73,6.53,4.33,6.53,4.33h0c5.75-1.73,7.79-5,13.93-5.59,1-1.82,3.07-3.82,3.78-5.82.87-2.56,1-5,1.58-7.56,1.1-4.49,3.07-8.74,4.48-13.07a9.29,9.29,0,0,0,.63-4.17v-.16A3.43,3.43,0,0,0,97,222.56a3.26,3.26,0,0,0-2.76,1.26,17.28,17.28,0,0,0-2.83,5,15.39,15.39,0,0,1-1.58,3.3c-1,1.5-1.33-.15-1.49-1.33a33.54,33.54,0,0,1-.24-4c.08-2.6.32-5.27.47-7.87l.87-17.87a2.85,2.85,0,0,0-.12-.72,2.8,2.8,0,0,0-3.5-1.88c-2.23.79-1.76,4-2,5.91-.39,3.07-.86,6.22-1.26,9.37-.31,2.28-.63,4.56-.94,6.76-.24,1.34.08,2.76-.08,4.1-.08.5-.17,1.85-.87,2s-.78-1.19-.94-1.66c-.31-1.18-.63-2.36-.87-3.54-.47-2.35-.86-4.63-1.26-7a121.9,121.9,0,0,0-2.83-14.16,2.7,2.7,0,0,0-.24-.55l-.06-.26a2.65,2.65,0,0,0-3.32-1.74c-2.68.85-1.57,4.8-1.34,6.85.32,3.22.79,6.53,1.1,9.83.32,2.45.55,5,.79,7.4.08.87,1.42,4.73.08,5.2-1.1.39-1.73-2.83-2-3.46-.71-1.58-1.41-3.07-2.12-4.65-1.42-3.07-2.76-6.22-3.94-9.37a6.21,6.21,0,0,0-.47-.78c-.32-.95-.63-1.81-.94-2.76a2.75,2.75,0,0,0-.35-.63,2.61,2.61,0,0,0-3.65-.47c-2,1.5-.39,4.25.24,6.06,1,2.84,2.07,5.75,3.07,8.58.78,2.06,1.49,4.06,2.28,6.06.39,1.1,2.52,5.67.08,5.67-.47.08-1.1-.79-1.34-1.1a23.57,23.57,0,0,1-2.2-3.23c-2-2.83-3.91-5.75-5.91-8.58a2.83,2.83,0,0,0-.83-.71,2.7,2.7,0,0,0-3.65,1.1C48.73,221.21,52.35,224.52,53.77,226.26Z"/><path class="cls-12" d="M107.6,318.11c1.26-9.05-2.12-18.73-2.12-18.73"/><path d="M142,164.18a37.72,37.72,0,0,0,1.26,5,46.09,46.09,0,0,0,4.49,9.53c4.17,6.85,9.29,12.51,16.45,16.61a46.18,46.18,0,0,0,21.57,6.29,49.74,49.74,0,0,0,9-.23c1.57-.24,3.15-.71,4.72-1.11,1.89-.47,3.83-.94,5.83-1.25a9.14,9.14,0,0,1,3.93-.08,1.42,1.42,0,0,0,.48.23c.07,0,.07.16.15.16-.15,0,.4-.55.4-.55a38,38,0,0,1,3.46-2.76c2.28-1.81,4.49-3.62,6.69-5.51a75.07,75.07,0,0,0,11-12.35A115,115,0,0,0,241,163.79,39,39,0,0,0,245.4,152c-.87-6.62-1.66-13.31-2.21-20a130.93,130.93,0,0,0-2.12-15.66,91.36,91.36,0,0,0-4.1-14.25,41.76,41.76,0,0,0-12.43-15.19c-12.73-9.6-34.64-9-48.73-2.6A19.48,19.48,0,0,1,171.17,86c-1.7.24-3.35.08-5,.16-11.73.57-21.25,13.09-23.54,23-2,8.74-.39,18.42-2.59,27.16-.16,2.65-.24,5.32-.4,8a107.21,107.21,0,0,1,1.18,12.28,1.61,1.61,0,0,1,.47.39,2.55,2.55,0,0,1,.32,1.73v.08C141.06,160,141.85,162.73,142,164.18Z"/><path class="cls-7" d="M217.77,221.14a29.71,29.71,0,0,1-5-8.81c-3.94-10.87-3.7-22.67-5.83-33.93a25.88,25.88,0,0,0-11.25-.16c-1.34.32-13,3.15-12.83,4.73.63,7.08.16,18.34-2.84,24.79-2.2,4.72-5.59,7.56-10.39,10.63,0,0,.08.63.08.71l-.79.08.08.07.08.08h0a.07.07,0,0,1,.08.08c.63.66,1.18,1.37,1.89,2a26.64,26.64,0,0,0,7.63,4.09,48.64,48.64,0,0,0,8.11,2.29c.79.07,1.65.07,2.36.07a63,63,0,0,0,15.35-1.81,55.62,55.62,0,0,0,7.17-2C213.71,223.26,215.68,222.16,217.77,221.14Z"/><path class="cls-7" d="M181.91,232.51c-24.95-2.09-11.41-15-11.41-15L191,209l27.16,11.26S213.16,235.15,181.91,232.51Z"/><path class="cls-13" d="M211.51,190.15l.63.32a10.63,10.63,0,0,1,2.2-1l.08-1A11,11,0,0,0,211.51,190.15Z"/><path d="M240.76,178.45c-9-2.36-19.84.39-28.26,3.39a3.06,3.06,0,0,0-1.73,1,2.53,2.53,0,0,0-.32,1.5c-.07,2.91-.15,5.74-.23,8.65-.08,1.74.08-1,1.18.32s1.18,3,3.54,3.86a7.59,7.59,0,0,1,4.57,5.66,11.83,11.83,0,0,1-1.58,6.06c-2.75,5.67-6.45,11-9.36,16.53C200.38,241,203,260.14,221,268.48a34.1,34.1,0,0,0,32-2.2c-5.72,1.34-11.93-1.58-15-6.22-3.39-5.27-1.11-12.36,1.1-17.71,3.15-7.6,7.74-14.6,11.25-22s6.1-15.62,5-23.62c-1-7.4-6.06-15.82-14.17-18.18C241.1,178.47,241,178.47,240.76,178.45Z"/><g class="cls-9"><g class="cls-14"><g class="cls-14"><path class="cls-11" d="M201.48,198.86a70,70,0,0,1-20,4.41,68.87,68.87,0,0,0,1.27-20.15c-.17-1.66,11.41-4.41,12.83-4.73a25.73,25.73,0,0,1,11.25.16c1,5.51,1.5,11.18,2.21,16.84a67.05,67.05,0,0,1-7.56,3.47"/></g></g></g><path class="cls-7" d="M155.68,166.52a17.6,17.6,0,0,1-11.18-3c-5.74-3.94-9.05-12.36-6.53-19.13a9.48,9.48,0,0,1,6-5.91,7.24,7.24,0,0,1,7.87,2.37"/><g class="cls-15"><path class="cls-16" d="M141.06,150.05a20,20,0,0,0,3.54,10.31,6.23,6.23,0,0,0,2.91,1.89,28.69,28.69,0,0,0,3.47,0c-1-1.11-3.15-4-1.5-5.36a3.21,3.21,0,0,1,2.52-.23c.87.13,2-.08,2.28-.87a2.11,2.11,0,0,0,0-1,16.61,16.61,0,0,0-4.29-8.73,11.43,11.43,0,0,0-5-3.7c-2.75-.71-3.14,1.42-3.62,3.7a17.86,17.86,0,0,0-.31,4"/></g><rect class="cls-1" x="141.44" y="141.59" width="12.28" height="21.1" transform="translate(-27.97 33.36) rotate(-11.79)"/><rect class="cls-1" x="141.44" y="141.59" width="12.28" height="21.1" transform="translate(-27.97 33.36) rotate(-11.79)"/><path class="cls-7" d="M224.86,101.8c4.8,8.35,5.75,18.89,5.27,28.42a137.12,137.12,0,0,1-4.64,30.93c-2.52,9.09-5.27,17.95-12.83,24.09-6.38,5.12-13.18,10.78-21.18,11.41-13.58,1.14-29.64-5.66-36.73-18.73-3.46-6.45-4.4-13.93-4.72-21.17-.55-11.81-1.73-23.38.16-35.11,1.29-7.87,3.7-17.06,9.29-23.06,6-6.38,15-9.29,23.53-10.52,11.06-1.69,23.15-.51,33.06,5a22.84,22.84,0,0,1,8.82,8.73"/><path class="cls-7" d="M219.69,164.79a21.13,21.13,0,0,0,23.85-10.48,16.51,16.51,0,0,0,1.5-11.89c-2.65-9.68-17.65-13.07-21.65-2.2"/><g class="cls-15"><path class="cls-16" d="M240.4,144.93A19.2,19.2,0,0,1,239,155.79a6.13,6.13,0,0,1-2.44,2.43,25.82,25.82,0,0,1-3.39.71c.79-1.26,2.29-4.51.4-5.51a3.13,3.13,0,0,0-2.52.24c-.79.23-1.89.31-2.36-.4a2.53,2.53,0,0,1-.24-1,17.42,17.42,0,0,1,2.44-9.45,11.39,11.39,0,0,1,4.09-4.56c2.6-1.34,3.39.71,4.33,2.83a21.56,21.56,0,0,1,1.11,3.86"/></g><rect class="cls-1" x="228.35" y="137.78" width="12.28" height="21.1"/><rect class="cls-1" x="228.35" y="137.78" width="12.28" height="21.1"/><circle class="cls-17" cx="228.9" cy="159.58" r="1.18"/><path class="cls-18" d="M178.26,148.62A56.52,56.52,0,0,1,175.9,157a6.09,6.09,0,0,1-.39,1l-.4.94c-.23.63-.47,1.26-.63,1.89a4.79,4.79,0,0,0,0,1.81,3.21,3.21,0,0,0,.79,1.5,8.12,8.12,0,0,0,1.5,1.18,7.91,7.91,0,0,0,1.81.86,9.53,9.53,0,0,0,4.17.48,8.19,8.19,0,0,1-4.33.39,7.39,7.39,0,0,1-2.2-.63,7.85,7.85,0,0,1-2-1.26,4.84,4.84,0,0,1-1.34-2.13,6.62,6.62,0,0,1,0-2.51,10,10,0,0,1,.71-2.21l.39-1c.16-.37.24-.68.39-1,1-2.59,1.82-5.35,2.68-8.1a38.74,38.74,0,0,1,3.39-7.95C179.55,143,179,145.73,178.26,148.62Z"/><path d="M169.78,87.65c3-2.36,20.66-6.14,25.66-5.58,9.84,1,16.4,4.8,24.4,10.86,12.48,9.52,19.09,25.58,15,40.85-3.23-1.12-3.93-.81-6.93,1-1.57.95-2.83,2.29-4.57,2.76-1.33.39,3.62-1.57,2.29-1.89-10.89-2.65-27.35-13.93-36-18.65-3.23-1.82-26.06-13.6-25.35-22.6C164.48,91.26,166.4,90.39,169.78,87.65Z"/><path d="M165.54,94.62v-.94c-3.31.31-6.77.7-9.6,2.44a18.82,18.82,0,0,0-5.2,5.43,49,49,0,0,0-8.34,23.06,1.09,1.09,0,0,0,.08.47c.15.24.47.24.78.24a15.22,15.22,0,0,0,6.69-2.13,16.44,16.44,0,0,0,3.39-3.22,75.43,75.43,0,0,0,8.74-11.18,25.65,25.65,0,0,0,3.85-13.44"/><path d="M215.07,131.48c5.43,2.28,8.27,12.36,8.19,18.18a9.64,9.64,0,0,0,1-3.93,41.55,41.55,0,0,1,2.68-10.24"/><path class="cls-13" d="M167.11,93.3c7.44,8.74,56.44,26.84,56.44,26.84C183.41,119.36,167.11,93.3,167.11,93.3Z"/><path class="cls-13" d="M146.73,120.22c8.84-8.56,16.84-24.56,16.84-24.56C163.89,112.27,146.73,120.22,146.73,120.22Z"/><path class="cls-13" d="M225.13,105.42c-.63-2.67-7.4-7.4-7.4-7.4-20.13-15.39-46.13-7.39-46.13-7.39C206.79,90.39,225.13,105.42,225.13,105.42Z"/><path class="cls-13" d="M145,109c4.41-17.15,19.53-17.15,19.53-17.15C153.81,96.29,145,109,145,109Z"/><path class="cls-13" d="M198.28,99.91c7.88,8.74,38.34,19.68,38.34,19.68C226.54,110.79,198.36,99.91,198.28,99.91Z"/><path class="cls-13" d="M215.36,89c13.23-.55,19.84,18.26,19.84,18.26C226.15,92.79,215.36,88.89,215.36,89Z"/><path class="cls-13" d="M238.25,186.14A16.08,16.08,0,0,1,243.6,190a15.07,15.07,0,0,1,3.23,5.91,21.57,21.57,0,0,1,.7,6.69,36,36,0,0,1-.94,6.53,58.5,58.5,0,0,1-2,6.22,63,63,0,0,1-2.67,6c-.95,1.89-2.07,3.78-3.07,5.67-4.18,7.48-9,14.48-9.53,22.59a20.5,20.5,0,0,0,.32,5.9,10.66,10.66,0,0,0,.86,2.76,9.87,9.87,0,0,0,.63,1.26,10.24,10.24,0,0,0,.79,1.26,20.38,20.38,0,0,0,9.76,7.32,16.36,16.36,0,0,1-6.22-1.89,19.48,19.48,0,0,1-2.75-1.81,21,21,0,0,1-2.44-2.28,14,14,0,0,1-2.05-2.84,16,16,0,0,1-1.26-3.22,21.75,21.75,0,0,1-.71-6.77,30.37,30.37,0,0,1,1-6.62,21,21,0,0,1,1-3.22c.47-1.07.86-2.07,1.34-3.07a126,126,0,0,1,6.22-11.26c1-1.89,2.07-3.7,3.07-5.51a54.63,54.63,0,0,0,2.75-5.59c.79-1.89,1.5-3.82,2.13-5.82a32.17,32.17,0,0,0,1.26-6,22.34,22.34,0,0,0-.24-6,13.89,13.89,0,0,0-2.36-5.43A17.86,17.86,0,0,0,232,184.32,14.78,14.78,0,0,1,238.25,186.14Z"/><path class="cls-13" d="M221.3,241a33.65,33.65,0,0,0-.39,9.29,26,26,0,0,0,2.52,8.66,21.44,21.44,0,0,0,6,7.24,11.82,11.82,0,0,1-4.64-2.05,15.85,15.85,0,0,1-3.7-3.7,20,20,0,0,1-3.7-9.84,24.72,24.72,0,0,1,1.18-10.31,29,29,0,0,1,4.72-8.89C222.58,234.77,221.79,237.92,221.3,241Z"/><path class="cls-13" d="M229.12,200.07a26,26,0,0,1-1.41,4.41,72.26,72.26,0,0,1-4.17,8c-.71,1.34-1.5,2.59-2.13,3.85l-1.89,4c-1.26,2.68-2.38,5.4-3.38,8.11s-2,5.47-2.94,8.33a83.5,83.5,0,0,0-2.2,8.5,38.62,38.62,0,0,0-.79,8.58,18.7,18.7,0,0,0,2.13,8.42,15.94,15.94,0,0,1-4-8.18,33.24,33.24,0,0,1-.23-9.29,54.17,54.17,0,0,1,1.73-9,85.82,85.82,0,0,1,2.83-8.66,76.1,76.1,0,0,1,3.78-8.27c.71-1.34,1.49-2.59,2.28-3.93s1.66-2.52,2.52-3.78c1.77-2.44,3.51-4.8,5-7.32a26,26,0,0,0,2-3.94,12.07,12.07,0,0,0,.79-4.33A8.49,8.49,0,0,1,229.12,200.07Z"/><path class="cls-13" d="M235.06,189.86a14.06,14.06,0,0,1,2.12,5.51,24.65,24.65,0,0,1-1,11.5,63.36,63.36,0,0,1-4.49,10.23c-1.73,3.31-3.67,6.38-5.67,9.52a62.25,62.25,0,0,1,3.07-10.7c1.26-3.39,2.63-6.77,3.63-10.15a33.08,33.08,0,0,0,1.73-10.16,16.07,16.07,0,0,0-.87-5,21.69,21.69,0,0,0-2.44-4.8A12.44,12.44,0,0,1,235.06,189.86Z"/><path class="cls-6" d="M236.6,170.23c-3.54,8.26-24.79,26.84-24.79,26.84l3.15,1.26,25.18-19.21Z"/><path d="M164,126.76s1.91-1.41-4.48-4.25-10.39,13.06-10.39,13.06Z"/><path d="M193.18,128.23s-2.38-1,4-5,13.86,11,13.86,11Z"/><path d="M158.29,137.32s.7,3.12,2.12,4.5a9,9,0,0,0-.58,3.48c.09,3.41,1.88,6.14,4,6.08s3.76-2.86,3.68-6.27-1.87-6.13-4-6.08a2.8,2.8,0,0,0-2,1c-1.15-.53-2.76-1.45-3.26-2.67"/><path d="M194.76,135.31s.71,3.12,2.12,4.5a9.16,9.16,0,0,0-.58,3.48c.09,3.41,1.87,6.14,4,6.08s3.78-2.86,3.69-6.27-1.88-6.13-4-6.07a2.8,2.8,0,0,0-2,1c-1.15-.53-2.75-1.45-3.26-2.67"/><circle class="cls-19" cx="166.9" cy="142.63" r="1.28"/><path d="M192.72,139.27c.37.26.75.51,1.15.74a5.52,5.52,0,0,0,1.36.54,2.88,2.88,0,0,0,.83.06,4.16,4.16,0,0,0,.79-.2c.45-.16.86-.33,1.27-.46a6.56,6.56,0,0,1,1.08-.27h.35l.54.06a6.89,6.89,0,0,1,1.1.21,1.45,1.45,0,0,1,.94.6h.18a1.11,1.11,0,0,0,0-.84,1.92,1.92,0,0,0-.44-.74,3.51,3.51,0,0,0-1.3-.92,2.92,2.92,0,0,0-.76-.24,2.11,2.11,0,0,0-1,0,2.8,2.8,0,0,0-.79.3l-.62.36c-.39.24-.78.47-1.15.67l-.47.22a2.13,2.13,0,0,1-.5.11,9.94,9.94,0,0,1-2.54-.38Z"/><path d="M155.77,140.22a9.94,9.94,0,0,0,2.54.38,2.13,2.13,0,0,0,.5-.11l.47-.22c.37-.2.76-.43,1.15-.67.2-.12.4-.24.62-.35a2.55,2.55,0,0,1,.79-.31,2.11,2.11,0,0,1,1,0,2.92,2.92,0,0,1,.76.24,3.51,3.51,0,0,1,1.3.92,1.92,1.92,0,0,1,.44.74,1.11,1.11,0,0,1,0,.84h-.19a1.45,1.45,0,0,0-.94-.6,6.89,6.89,0,0,0-1.1-.21l-.53-.06h-.36a6.56,6.56,0,0,0-1.08.27c-.41.13-.82.3-1.27.46a4.16,4.16,0,0,1-.79.2,2.88,2.88,0,0,1-.83-.06,5.45,5.45,0,0,1-1.35-.54c-.4-.23-.78-.48-1.16-.74Z"/><circle class="cls-19" cx="203.39" cy="140.92" r="1.28"/><path class="cls-16" d="M178.24,178.85s3,11,13.74,8.33,8.91-13.86,8.91-13.86Z"/><path class="cls-16" d="M201.21,171.48a25.08,25.08,0,0,0-24.65,4.68C188.87,181,201.21,171.48,201.21,171.48Z"/><path class="cls-20" d="M176.67,177.1c.32-.2,9.17-5.19,25-5.33a20.07,20.07,0,0,1-4.25,9.18,11.16,11.16,0,0,1-6.71,3.7,12.16,12.16,0,0,1-7.45-1.21,17.31,17.31,0,0,1-6.63-6.33Z"/><path class="cls-21" d="M176.67,177.1c.32-.2,9.17-5.19,25-5.33a9.1,9.1,0,0,1-2.92,2.87c-1.63.84-16.77,4.14-19.2,3.7s-2.92-1.23-2.92-1.23Z"/><path class="cls-22" d="M183.26,183.44c4-5.13,11-3.56,14.16-2.49a11.16,11.16,0,0,1-6.71,3.7,12.16,12.16,0,0,1-7.45-1.21"/><path class="cls-23" d="M48.33,210.53a42.53,42.53,0,0,0-2.52,5A34.72,34.72,0,0,0,44,220.88a47.3,47.3,0,0,0-1.1,5.67,18.4,18.4,0,0,1-.16-5.83,16.81,16.81,0,0,1,.56-2.91l.47-1.42a9.71,9.71,0,0,1,.55-1.42,25.6,25.6,0,0,1,1.34-2.67,16.85,16.85,0,0,1,1.65-2.44,17.54,17.54,0,0,1,4.33-4A45.22,45.22,0,0,0,48.33,210.53Z"/><path class="cls-23" d="M42.67,207.07a41.77,41.77,0,0,0-2.52,5,32.08,32.08,0,0,0-1.81,5.35,45.44,45.44,0,0,0-1.11,5.67,18.34,18.34,0,0,1-.15-5.82,16.9,16.9,0,0,1,.55-2.92l.47-1.41a10.17,10.17,0,0,1,.55-1.42A29.11,29.11,0,0,1,40,208.84a16.85,16.85,0,0,1,1.65-2.44,17.54,17.54,0,0,1,4.33-4A35.72,35.72,0,0,0,42.67,207.07Z"/><path class="cls-24" d="M105.87,234.22a42.06,42.06,0,0,0-2.75-11,30,30,0,0,0-2.52-5c-.95-1.65-2.13-3.15-3.23-4.72a20.6,20.6,0,0,1,4.25,4.09,19.4,19.4,0,0,1,1.66,2.44,9.47,9.47,0,0,1,.7,1.34,6.56,6.56,0,0,1,.63,1.34,18.45,18.45,0,0,1,1,2.83,18.91,18.91,0,0,1,.55,2.91,15.89,15.89,0,0,1-.24,5.83Z"/><path class="cls-24" d="M112.37,232.64a42.48,42.48,0,0,0-2.76-11,28.91,28.91,0,0,0-2.52-5c-.94-1.66-2.12-3.15-3.22-4.73a21.17,21.17,0,0,1,4.25,4.1,17.41,17.41,0,0,1,1.65,2.44,10.7,10.7,0,0,1,.71,1.34,7,7,0,0,1,.59,1.34A18.9,18.9,0,0,1,112,224a16.79,16.79,0,0,1,.55,2.91,16.11,16.11,0,0,1-.23,5.83Z"/></g></svg>