<svg width="34" height="38" viewBox="0 0 34 38" fill="none" xmlns="http://www.w3.org/2000/svg">
<path fill-rule="evenodd" clip-rule="evenodd" d="M33.0413 16.6053C33.0413 11.2615 31.0611 7.14835 28.0058 4.38228C24.974 1.63741 20.9662 0.292002 16.9997 0.291992C13.0331 0.291982 9.02533 1.63738 5.9935 4.38224C2.93827 7.1483 0.958008 11.2615 0.958008 16.6053C0.958008 24.4985 6.18836 30.9414 10.3817 34.8647L10.4107 34.8918C11.6836 36.0828 12.51 36.856 14.4194 37.4485C15.136 37.6708 16.1271 37.7516 17.0001 37.7516C17.8732 37.7515 18.8642 37.6708 19.5808 37.4484C21.4902 36.8559 22.3166 36.0826 23.5894 34.8916L23.6184 34.8645C27.8115 30.9412 33.0413 24.4984 33.0413 16.6053ZM22.4997 16.3337C22.4997 19.3712 20.0372 21.8337 16.9997 21.8337C13.9621 21.8337 11.4997 19.3712 11.4997 16.3337C11.4997 13.2961 13.9621 10.8337 16.9997 10.8337C20.0372 10.8337 22.4997 13.2961 22.4997 16.3337Z" fill="#6751EE"/>
</svg>
