<svg width="1440" height="382" viewBox="0 0 1440 382" fill="none" xmlns="http://www.w3.org/2000/svg">
<path d="M1440 97.2072C772.49 -139.668 201.871 111.522 0 266.727V382H1440V97.2072Z" fill="#F8F7FF"/>
<path d="M1296.85 126.498C1295.53 120.838 1296.06 114.251 1299.96 109.908C1297.9 112.689 1297.38 116.495 1297.17 119.96C1297.01 122.106 1296.9 124.302 1296.85 126.498Z" fill="black"/>
<path d="M1294.74 225.499C1296.11 220.229 1297.43 214.911 1298.8 209.641C1301.6 198.809 1304.39 187.782 1303.81 176.657C1303.28 165.923 1299.64 155.53 1297.11 144.991C1294.58 134.5 1293.16 123.278 1296.96 113.129C1299.43 106.444 1304.07 100.589 1309.03 95.1732C1315.78 87.8543 1324.21 80.7305 1334.6 80.0474C1344.04 79.4619 1352.84 84.39 1360.44 89.6109C1382.53 104.883 1403.62 127.133 1401.56 154.261C1399.87 175.779 1387.96 195.491 1387.06 217.155C1387.48 215.643 1387.85 214.13 1388.28 212.618C1387.01 223.303 1384.32 233.843 1380.21 243.943C1379.52 245.553 1378.78 247.261 1377.36 248.383C1376.04 249.408 1374.3 249.798 1372.62 250.091C1354.37 253.555 1335.08 252.335 1317.57 246.48C1311.14 244.333 1304.92 241.601 1298.75 238.868C1297.01 238.088 1292 234.331 1292 234.331C1292 234.331 1293.42 231.208 1294 228.915C1294.11 227.792 1294.43 226.67 1294.74 225.499Z" fill="black"/>
<path d="M1350.15 253.994C1350.42 254.433 1380.52 268.144 1380.52 268.144C1380.52 268.144 1369.24 248.871 1361.28 228.963C1365.02 227.792 1368.77 226.67 1372.46 225.499C1376.67 224.182 1380.89 222.864 1385.16 221.547C1386.48 223.889 1388.96 228.183 1391.44 233.55C1392.91 236.721 1394.39 240.722 1395.76 243.748C1397.61 247.846 1399.14 251.408 1399.87 253.262C1403.78 263.167 1414.32 286.49 1412.79 296.249C1411.68 303.275 1400.24 305.666 1395.13 303.031C1385.85 298.152 1379.1 293.858 1366.02 283.66C1360.96 279.708 1356.22 275.561 1351.31 271.462C1349.89 270.291 1348.52 269.12 1347.1 267.9C1346.41 267.315 1345.73 266.778 1345.04 266.192C1344.57 265.753 1340.56 263.801 1340.19 263.46C1341.93 260.386 1342.93 256.385 1345.36 253.506C1345.41 253.555 1349.2 252.482 1350.15 253.994Z" fill="#D69377"/>
<path d="M1379.94 267.949C1379.94 267.949 1386.9 270.877 1391.07 275.805" stroke="#AC523F" stroke-width="0.635571" stroke-miterlimit="10"/>
<path d="M1440.31 141.137C1440.31 141.137 1439.47 139.722 1432.83 140.503C1426.18 141.283 1399.82 158.166 1399.82 158.166C1399.82 158.166 1404.62 175.585 1390.12 178.951C1379.58 181.391 1373.99 178.659 1373.99 178.659C1373.99 178.659 1356.32 199.005 1354.9 207.3C1354.9 207.3 1440.05 262.436 1426.24 256.434L1440.37 256.581L1440.31 141.137Z" fill="#6751EE"/>
<path d="M1356.22 203.543C1356.01 204.128 1352.69 207.739 1355.95 223.938C1358.91 238.625 1371.93 253.507 1371.93 253.507L1397.82 231.94L1356.22 203.543Z" fill="#6751EE"/>
<path d="M1369.72 215.107C1369.82 215.254 1369.98 215.351 1370.14 215.449L1371.35 216.425C1372.41 217.254 1373.93 218.425 1375.89 219.84C1379.73 222.67 1385.11 226.525 1391.07 230.721C1397.03 234.917 1402.51 238.674 1406.41 241.407L1411.11 244.578L1412.42 245.408C1412.58 245.505 1412.74 245.603 1412.9 245.701C1412.79 245.554 1412.63 245.457 1412.48 245.359L1411.21 244.432L1406.57 241.163L1391.28 230.428C1385.32 226.232 1379.95 222.426 1376.04 219.645L1371.46 216.327L1370.24 215.449C1370.03 215.303 1369.87 215.205 1369.72 215.107Z" fill="#503FAD"/>
<path d="M1330.54 244.235C1326.27 245.894 1328.43 248.968 1328.43 248.968C1323.79 249.846 1326.8 253.847 1326.8 253.847C1322 254.14 1325.37 258.141 1326.96 258.727L1340.61 263.508L1351 254.677L1346.78 249.554C1345.83 248.578 1344.46 247.504 1342.77 246.333C1335.66 241.259 1323.63 234.916 1320.52 233.94C1316.67 232.769 1317.52 236.038 1317.52 236.038L1330.54 244.235Z" fill="#D69377"/>
<path d="M1334.34 252.433C1334.5 251.847 1334.92 251.311 1335.5 250.969C1337.55 250.091 1339.66 249.359 1341.77 248.578C1341.82 248.676 1341.82 248.773 1341.88 248.871L1339.35 249.749L1337.45 250.383L1336.5 250.725C1336.18 250.823 1335.87 250.92 1335.6 251.067C1335.02 251.359 1334.6 251.847 1334.44 252.433C1334.23 252.969 1334.28 253.604 1334.6 254.092C1334.92 254.58 1335.66 254.775 1336.29 254.726C1336.97 254.726 1337.61 254.58 1338.24 254.336C1337.61 254.58 1336.97 254.726 1336.29 254.726C1335.66 254.726 1334.92 254.58 1334.55 254.092C1334.23 253.604 1334.18 252.969 1334.34 252.433Z" fill="#AC523F"/>
<path d="M1328.27 248.919C1329.54 249.748 1330.86 250.48 1332.18 251.261C1333.49 251.993 1334.81 252.725 1336.24 253.408C1334.97 252.578 1333.65 251.847 1332.33 251.066C1331.02 250.334 1329.7 249.602 1328.27 248.919Z" fill="#AC523F"/>
<path d="M1326.85 253.799C1327.96 254.189 1329.07 254.531 1330.23 254.823C1331.33 255.116 1332.49 255.409 1333.65 255.604C1332.55 255.214 1331.44 254.872 1330.28 254.58C1329.12 254.287 1328.01 254.043 1326.85 253.799Z" fill="#AC523F"/>
<path d="M1330.28 244.089C1330.86 244.723 1331.49 245.309 1332.17 245.894C1332.86 246.48 1333.49 247.016 1334.23 247.504C1333.65 246.87 1333.02 246.285 1332.33 245.699C1331.7 245.162 1331.01 244.577 1330.28 244.089Z" fill="#AC523F"/>
<path d="M1335.92 254.726C1336.61 254.726 1337.19 254.189 1337.19 253.555V252.384C1337.19 251.75 1336.61 251.213 1335.92 251.213C1335.23 251.213 1334.65 251.75 1334.65 252.384V253.555C1334.65 254.189 1335.23 254.726 1335.92 254.726Z" fill="#D69377"/>
<path d="M1353.69 215.105C1353.69 215.105 1352.63 230.817 1348.47 239.599C1348.52 239.599 1349.63 229.548 1353.69 215.105Z" fill="#231F20"/>
<path d="M1338.19 194.321C1338.19 194.321 1337.13 210.033 1332.97 218.815C1332.97 218.815 1334.13 208.764 1338.19 194.321Z" fill="#231F20"/>
<path d="M1357.43 167.533C1357.43 167.533 1350.47 187.099 1348.99 195.882C1348.1 201.2 1346.57 219.302 1344.09 224.328C1344.09 224.328 1348.73 212.471 1350.52 199.541C1352.26 186.611 1353.53 182.659 1357.43 167.533Z" fill="#231F20"/>
<path d="M1341.98 142.551C1341.98 142.551 1335.02 162.117 1333.55 170.899C1332.65 176.218 1331.12 194.32 1328.64 199.346C1328.64 199.346 1333.28 187.489 1335.08 174.559C1336.82 161.58 1338.08 157.677 1341.98 142.551Z" fill="#231F20"/>
<path d="M1318.31 176.072C1318.31 176.072 1310.66 195.492 1309.4 204.323C1308.66 209.642 1308.08 227.988 1305.18 232.916C1305.18 232.916 1310.35 221.157 1311.72 208.178C1313.04 195.101 1314.41 191.198 1318.31 176.072Z" fill="#231F20"/>
<path d="M1361.6 212.276C1358.48 207.592 1358.27 202.079 1360.49 197.541C1360.59 197.199 1360.7 196.906 1360.86 196.565L1379.31 162.654L1415.01 150.7C1415.53 150.504 1416.11 150.309 1416.64 150.163H1416.69H1416.75C1421.6 148.845 1427.08 149.577 1431.61 152.651L1435.09 155.237L1364.18 215.936L1361.6 212.276Z" fill="#6751EE"/>
<path d="M1400.61 155.383L1378.84 162.799L1371.51 177.486C1371.51 177.486 1370.56 191.099 1386.17 179.877C1405.67 165.873 1400.61 155.383 1400.61 155.383Z" fill="#D49176"/>
<path d="M1398.87 160.654C1398.03 162.264 1396.92 163.825 1395.82 165.289C1393.5 168.461 1390.96 171.291 1387.85 173.828C1387.43 174.17 1386.96 174.56 1386.43 174.999C1384.58 176.121 1382.53 177 1380.47 177.78C1378.31 178.61 1376.15 179.195 1373.88 179.342C1373.14 179.342 1372.46 179.293 1371.72 179.195C1371.67 179.195 1371.67 179.195 1371.61 179.195C1371.56 179.195 1371.56 179.195 1371.51 179.195C1371.46 179.195 1371.46 179.195 1371.4 179.195C1371.35 179.195 1371.83 178.756 1371.83 178.756C1371.77 178.756 1371.4 178.415 1371.35 178.415C1372.51 174.414 1372.93 171.193 1371.72 167.583C1370.03 162.606 1364.23 156.36 1360.12 152.896C1359.17 152.115 1364.39 144.845 1365.08 144.016C1366.97 141.576 1368.98 139.966 1371.72 138.551C1378.94 143.528 1385.16 150.017 1393.23 153.921C1395.71 155.092 1398.24 155.775 1400.88 156.165C1400.19 157.629 1399.66 159.19 1398.87 160.654Z" fill="#D49176"/>
<g opacity="0.16">
<g opacity="0.16">
<g opacity="0.16">
<path opacity="0.16" d="M1379.52 152.114C1380.47 150.309 1381.32 148.455 1382.05 146.552C1378.63 143.868 1375.31 141.038 1371.77 138.599C1369.03 140.014 1367.08 141.624 1365.13 144.063C1364.44 144.893 1359.22 152.163 1360.17 152.944C1363.44 155.676 1367.71 160.165 1370.19 164.361C1373.99 160.702 1377.15 156.603 1379.52 152.114Z" fill="#D45B51"/>
</g>
</g>
</g>
<path d="M1319.05 144.843C1316.78 144.452 1314.41 145.623 1313.2 147.429C1312.04 149.234 1311.98 151.576 1312.88 153.577C1315.04 158.456 1321.42 161.335 1326.9 160.603C1329.96 160.212 1332.86 158.797 1334.97 156.699" fill="#D49176"/>
<path d="M1331.12 158.994C1330.6 158.994 1330.17 158.601 1330.17 158.116C1330.17 157.631 1330.6 157.237 1331.12 157.237C1331.65 157.237 1332.07 157.631 1332.07 158.116C1332.07 158.601 1331.65 158.994 1331.12 158.994Z" fill="#8976EB"/>
<path opacity="0.6" d="M1317.73 155.14C1316.99 154.456 1316.31 153.676 1315.78 152.846C1314.83 151.431 1313.93 150.016 1315.94 149.089C1317.31 148.455 1319.26 148.406 1320.79 148.601C1323.48 148.943 1325.85 149.528 1328.01 151.138C1328.22 151.285 1328.43 151.48 1328.54 151.724C1328.8 152.31 1328.22 152.944 1327.69 153.285C1327.11 153.676 1326.48 154.017 1326.38 154.652C1326.16 156.213 1328.91 156.701 1330.07 156.798C1330.01 156.798 1328.38 158.36 1328.06 158.506C1327.27 158.848 1326.22 159.092 1325.37 158.897C1322.47 158.36 1319.79 157.042 1317.73 155.14Z" fill="#D47A56"/>
<path d="M1340.56 87.7573C1337.5 86.879 1334.23 86.6351 1330.75 87.4158C1322.05 89.3675 1314.46 94.6859 1308.87 101.078C1304.6 105.957 1300.91 111.959 1300.86 118.399C1300.81 124.352 1304.29 130.5 1307.77 135.379C1312.93 142.601 1319.79 148.26 1326.43 154.311C1330.49 158.068 1335.02 161.581 1340.51 163.337C1351.63 166.851 1364.55 162.557 1371.88 155.238C1376.2 150.895 1377.1 144.552 1378.05 138.599C1379.15 131.525 1376.04 125.474 1372.62 119.326C1368.87 112.544 1364.08 106.25 1358.8 100.395C1354.01 95.0762 1347.84 89.8554 1340.56 87.7573Z" fill="#D49176"/>
<path d="M1360.23 109.128C1356.75 101.321 1367.18 95.7099 1373.99 99.5646C1376.73 101.126 1378.63 103.761 1379.47 106.688C1381.42 113.324 1378.15 120.594 1371.24 124.107" fill="#D49176"/>
<path opacity="0.6" d="M1372.62 103.273C1371.77 102.688 1370.88 102.151 1369.87 101.761C1368.24 101.077 1366.61 100.394 1365.87 102.395C1365.34 103.761 1365.55 105.518 1365.92 106.884C1366.61 109.275 1367.55 111.422 1369.56 113.178C1369.77 113.373 1369.98 113.52 1370.24 113.568C1370.93 113.715 1371.51 113.129 1371.82 112.593C1372.14 112.056 1372.46 111.373 1373.14 111.226C1374.78 110.836 1375.67 113.324 1375.88 114.349C1375.88 114.3 1377.36 112.641 1377.47 112.3C1377.73 111.519 1377.84 110.543 1377.57 109.763C1376.62 107.225 1374.88 104.883 1372.62 103.273Z" fill="#D47A56"/>
<path d="M1373.78 117.716C1373.25 117.716 1372.83 117.322 1372.83 116.837C1372.83 116.352 1373.25 115.959 1373.78 115.959C1374.3 115.959 1374.72 116.352 1374.72 116.837C1374.72 117.322 1374.3 117.716 1373.78 117.716Z" fill="#8976EB"/>
<path d="M1335.29 130.402C1335.76 132.452 1336.66 134.452 1337.61 136.355C1338.55 138.258 1339.61 140.112 1340.4 142.015C1340.51 142.259 1340.61 142.503 1340.72 142.747L1340.98 143.479C1341.19 143.967 1341.4 144.503 1341.77 144.991C1342.09 145.479 1342.56 145.967 1343.14 146.309C1343.41 146.455 1343.77 146.602 1344.09 146.699C1344.41 146.797 1344.72 146.797 1345.09 146.797C1345.73 146.797 1346.36 146.699 1346.94 146.504C1347.52 146.309 1348.05 146.114 1348.57 145.772C1349.57 145.187 1350.42 144.357 1350.89 143.43C1350.1 144.211 1349.21 144.845 1348.26 145.235C1347.78 145.431 1347.25 145.577 1346.73 145.675C1346.2 145.772 1345.67 145.821 1345.2 145.772C1344.72 145.723 1344.3 145.577 1343.93 145.333C1343.56 145.089 1343.3 144.747 1343.04 144.357C1342.77 143.967 1342.61 143.479 1342.4 143.04L1342.14 142.308C1342.03 142.064 1341.93 141.82 1341.82 141.527C1340.98 139.527 1339.82 137.672 1338.71 135.867C1337.39 134.062 1336.29 132.305 1335.29 130.402Z" fill="#AC523F"/>
<path d="M1301.44 113.763C1305.81 118.935 1325.37 114.007 1328.22 113.373C1335.76 111.616 1351.37 109.615 1359.12 105.517C1360.07 105.029 1358.22 108.542 1358.8 107.664C1359.54 106.542 1359.59 105.175 1359.96 103.907C1360.7 101.467 1360.96 100.93 1363.49 99.9545C1357.69 89.708 1345.3 84.3408 1332.97 85.463C1325.11 86.1949 1319.26 87.4147 1312.98 91.7085C1309.82 93.9042 1301.54 104.687 1301.12 107.42C1300.54 110.543 1299.91 111.909 1301.44 113.763Z" fill="black"/>
<path d="M1302.97 113.47C1305.6 115.91 1307.13 119.228 1307.92 122.643C1308.71 126.01 1308.77 129.523 1308.87 132.987C1308.87 134.11 1308.92 135.281 1308.61 136.403C1308.19 138.062 1307.03 139.526 1305.87 140.843C1305.71 140.989 1305.5 141.185 1305.29 141.136C1305.18 141.087 1305.08 140.989 1305.02 140.941C1301.07 136.159 1298.48 130.401 1297.54 124.449C1297.27 122.643 1297.11 120.74 1297.64 118.984C1298.33 116.642 1300.17 114.739 1301.91 112.934C1302.07 113.08 1302.23 113.275 1302.39 113.422" fill="black"/>
<path d="M1359.75 104.834C1360.75 107.225 1362.07 109.518 1363.65 111.616C1364.29 112.446 1364.97 113.275 1365.18 114.251C1362.13 111.079 1355.06 107.078 1350.74 108.493" fill="black"/>
<path d="M1315.67 141.819C1315.67 141.819 1310.56 132.695 1315.36 131.036C1320.15 129.377 1319.73 130.938 1319.73 130.938L1315.67 141.819Z" fill="black"/>
<path d="M1348.84 112.494C1348.84 112.494 1337.92 109.079 1336.29 113.861C1334.65 118.642 1336.39 118.008 1336.39 118.008L1348.84 112.494Z" fill="black"/>
<path d="M1349.63 98.248C1349.63 98.248 1311.46 112.788 1302.55 111.764C1302.55 111.764 1325.9 117.716 1349.63 98.248Z" fill="#231F20"/>
<path d="M1301.75 114.787C1301.75 114.787 1305.66 127.327 1305.08 136.305C1305.08 136.305 1310.77 123.521 1301.75 114.787Z" fill="#231F20"/>
<path d="M1303.7 108.153C1303.7 108.153 1314.57 90.9775 1334.44 89.3186C1334.44 89.3186 1340.93 88.4891 1342.67 89.6113C1342.67 89.6113 1323.95 90.5872 1303.7 108.153Z" fill="#231F20"/>
<path d="M1300.17 112.299C1300.17 112.299 1291.42 119.764 1298.01 131.182C1298.01 131.182 1296.38 119.959 1300.17 112.299Z" fill="#231F20"/>
<path d="M1356.9 91.4648C1356.9 91.4648 1333.39 100.638 1324.16 99.8572C1324.16 99.8572 1346.3 91.7576 1356.9 91.4648Z" fill="#231F20"/>
<path d="M1301.49 127.328C1301.49 127.328 1300.44 132.647 1304.76 139.234C1304.76 139.234 1298.43 133.769 1301.49 127.328Z" fill="#231F20"/>
<path d="M1379.63 118.496C1379.63 118.496 1390.44 137.135 1391.28 145.674C1392.18 154.261 1394.6 132.792 1379.63 118.496Z" fill="#231F20"/>
<path d="M1349.42 85.5614C1349.42 85.5614 1335.5 78.7304 1328.12 85.5614C1328.12 85.5614 1336.5 82.2923 1349.42 85.5614Z" fill="#231F20"/>
<path d="M1359.75 104.249C1359.91 103.712 1356.75 101.272 1356.27 100.882C1354.85 99.6621 1353.16 98.979 1351.74 98.0519C1348.78 96.1002 1345.15 94.8316 1341.77 93.7581C1334.5 91.4161 1327.9 91.1721 1320.79 93.8069C1315.94 95.5635 1311.51 98.2959 1307.87 101.76C1304.39 105.029 1300.75 108.786 1298.91 113.129C1296.32 119.13 1296.85 126.157 1299.86 132.061C1302.86 137.964 1307.55 143.38 1313.83 146.308C1313.3 146.454 1312.4 146.894 1312.03 147.186C1306.97 143.332 1302.97 139.184 1299.17 134.256C1298.01 132.744 1296.96 131.182 1296.06 129.523C1294.48 126.547 1293.21 123.717 1292.74 120.399C1292.26 117.227 1294.32 111.665 1294.32 111.665C1298.01 103.029 1304.97 93.4654 1313.04 88.5861C1313.56 88.2933 1314.2 88.0494 1314.67 87.659C1321.68 83.902 1325.48 83.1213 1331.33 83.1701C1337.5 83.2189 1343.51 85.2682 1348.89 88.1469C1354.58 91.1721 1359.7 95.0755 1363.71 99.8572C1361.75 100.736 1360.28 102.346 1359.75 104.249Z" fill="#6751EE"/>
<path d="M1318.99 139.037C1320 139.476 1321.47 139.184 1322.53 138.94C1322.58 138.305 1322.79 137.769 1323.21 137.378C1324.53 136.256 1327.11 136.939 1329.06 138.842C1331.02 140.794 1331.49 143.233 1330.22 144.356C1328.91 145.478 1326.32 144.795 1324.37 142.892C1323.63 142.16 1323.11 141.379 1322.79 140.599C1321.16 140.501 1318.99 139.037 1318.99 139.037Z" fill="black"/>
<path d="M1327.32 138.696C1326.74 138.696 1326.27 138.259 1326.27 137.72C1326.27 137.181 1326.74 136.744 1327.32 136.744C1327.91 136.744 1328.38 137.181 1328.38 137.72C1328.38 138.259 1327.91 138.696 1327.32 138.696Z" fill="#FFEEE5"/>
<path d="M1319.1 142.111C1319.47 142.063 1319.84 142.014 1320.21 141.965C1320.58 141.868 1321 141.77 1321.37 141.575C1321.58 141.477 1321.74 141.331 1321.89 141.184C1322.05 141.038 1322.16 140.843 1322.26 140.648C1322.47 140.306 1322.63 140.013 1322.79 139.721C1322.95 139.428 1323.21 139.135 1323.32 139.038C1323.32 139.038 1323.42 138.94 1323.53 138.891C1323.63 138.794 1323.79 138.745 1323.9 138.647C1324.16 138.501 1324.42 138.354 1324.69 138.208C1324.95 138.11 1325.21 137.964 1325.58 138.062L1325.69 137.964C1325.64 137.769 1325.48 137.574 1325.21 137.476C1325 137.379 1324.74 137.281 1324.53 137.281C1324.05 137.232 1323.63 137.281 1323.21 137.427C1323 137.476 1322.79 137.574 1322.58 137.671C1322.37 137.769 1322.16 137.915 1321.95 138.159C1321.79 138.403 1321.68 138.55 1321.63 138.745C1321.58 138.94 1321.52 139.086 1321.42 139.282C1321.31 139.623 1321.21 139.965 1321.05 140.257C1321 140.404 1320.94 140.55 1320.89 140.648C1320.84 140.745 1320.73 140.843 1320.63 140.989C1320.21 141.428 1319.47 141.721 1318.84 142.063L1319.1 142.111Z" fill="black"/>
<path d="M1339.66 120.254C1340.67 120.693 1342.14 120.4 1343.2 120.156C1343.25 119.522 1343.46 118.985 1343.88 118.595C1345.2 117.473 1347.78 118.156 1349.73 120.059C1351.69 122.011 1352.16 124.45 1350.89 125.572C1349.58 126.695 1346.99 126.012 1345.04 124.109C1344.3 123.377 1343.78 122.596 1343.46 121.815C1341.83 121.718 1339.66 120.254 1339.66 120.254Z" fill="black"/>
<path d="M1340.51 123.426C1341.14 123.084 1341.88 122.791 1342.3 122.352C1342.41 122.255 1342.51 122.157 1342.56 122.011C1342.62 121.913 1342.67 121.815 1342.72 121.62C1342.83 121.327 1342.99 120.986 1343.09 120.644C1343.14 120.498 1343.2 120.303 1343.3 120.108C1343.35 119.912 1343.46 119.766 1343.62 119.522C1343.83 119.278 1344.04 119.132 1344.25 119.034C1344.46 118.937 1344.67 118.839 1344.88 118.79C1345.31 118.693 1345.73 118.595 1346.2 118.644C1346.41 118.644 1346.68 118.741 1346.89 118.839C1347.1 118.937 1347.26 119.132 1347.36 119.327L1347.26 119.425C1346.89 119.327 1346.62 119.425 1346.36 119.571C1346.1 119.717 1345.83 119.864 1345.57 120.01C1345.46 120.108 1345.31 120.156 1345.2 120.254C1345.09 120.303 1344.99 120.4 1344.99 120.4C1344.88 120.547 1344.62 120.84 1344.46 121.083C1344.25 121.376 1344.09 121.669 1343.93 122.011C1343.83 122.157 1343.72 122.352 1343.57 122.547C1343.41 122.694 1343.2 122.84 1343.04 122.938C1342.67 123.133 1342.25 123.23 1341.88 123.328C1341.51 123.426 1341.14 123.474 1340.77 123.474L1340.51 123.426Z" fill="black"/>
<path d="M1348.15 120.059C1347.57 120.059 1347.1 119.622 1347.1 119.083C1347.1 118.544 1347.57 118.107 1348.15 118.107C1348.73 118.107 1349.21 118.544 1349.21 119.083C1349.21 119.622 1348.73 120.059 1348.15 120.059Z" fill="#FFEEE5"/>
<path d="M1366.97 136.354C1366.97 136.354 1374.25 141.916 1369.03 148.893C1363.76 155.871 1355.9 151.089 1355.9 151.089L1366.97 136.354Z" fill="#D47A56"/>
<path d="M1353.37 150.356C1353.37 150.356 1354.32 139.719 1366.18 135.133C1366.18 135.133 1363.71 146.892 1353.37 150.356Z" fill="#D47A56"/>
<path d="M1353.9 150.893C1353.9 150.893 1357.59 152.113 1361.49 151.186C1363.34 150.746 1365.23 149.819 1366.82 148.112C1368.4 146.355 1368.92 144.403 1368.98 142.549C1369.03 138.597 1366.61 135.084 1366.61 135.084C1356.8 143.184 1354.06 150.551 1353.9 150.893Z" fill="#733E37"/>
<path d="M1353.9 150.893C1353.9 150.893 1354.64 151.088 1356.38 150.112C1358.12 149.136 1365.76 139.524 1366.34 138.207C1366.92 136.889 1366.61 135.084 1366.61 135.084C1356.8 143.184 1354.06 150.551 1353.9 150.893Z" fill="white"/>
<path d="M1361.54 151.185C1363.39 150.746 1365.29 149.819 1366.87 148.111C1368.45 146.355 1368.98 144.403 1369.03 142.549C1366.45 143.525 1361.18 146.16 1361.54 151.185Z" fill="#F38274"/>
</svg>
