<svg id="Layer_1" data-name="Layer 1" xmlns="http://www.w3.org/2000/svg" viewBox="0 0 1081 1081"><defs><style>.cls-1{fill:#2cae7a;}.cls-2{fill:#fff;fill-rule:evenodd;}</style></defs><path class="cls-1" d="M423.54,787.36h0C278.56,732,206,569.53,261.34,424.56h0c55.4-145,217.83-217.6,362.81-162.2h0c145,55.39,217.59,217.83,162.2,362.8h0C731,770.14,568.52,842.76,423.54,787.36Z"/><path class="cls-2" d="M670.54,572.57c27.07-76.58-12.15-161.34-89-190.73-76-29-160.66,6.8-192.5,80.19-.85,2-1.7,4.06-2.48,6.1a149,149,0,0,0-7.44,80.21l-54.24,65.52,87.81,5a151.51,151.51,0,0,0,61.62,43.57c78.1,29.84,165.37-8.79,195-86.29C669.7,575,670.15,573.79,670.54,572.57ZM482.81,640.09a126.72,126.72,0,0,1-57.93-44.51l-51.23-2.89,31.57-38.15A125,125,0,0,1,409,476.73a117.53,117.53,0,0,1,5-11.22c28.64-57.47,97.34-84.84,159-61.3,62.41,23.85,95.37,91.43,76.92,154-.9,3.15-1.93,6.24-3.12,9.35C621.88,632.63,548.33,665.13,482.81,640.09Z"/><path class="cls-2" d="M581.85,575.24c-2.85-3.06-16.68-17.91-19.42-20.24s-4.84-3.82-8.47-1.27-13.28,7.75-16.12,9.24-5,1-7.88-2-12.6-10.88-21.33-27.72a110.26,110.26,0,0,1-10.19-31.12c-.66-4.2,1.83-5.37,4.21-6.44,2.19-1,5-2.72,7.53-4l1.89-1.17a42.16,42.16,0,0,0,3.75-3.28,6.65,6.65,0,0,0,2-6.12c-.21-2.05-.68-21.65-1-29.64s-3.59-7.89-5.64-8.68-4.18-2-6.49-2.86a13.77,13.77,0,0,0-10.91.76c-4.49,2.23-16.61,7.16-23.09,24.1a47.33,47.33,0,0,0-2.69,12.4c-1.12,13.45,2.61,26.33,3.28,28.56.85,2.9,9.39,47.27,39.31,74.56s31.79,22.61,38.37,24.44,23.68-.43,29.61-7.42,8.6-13.78,8.3-15.56S584.63,578.27,581.85,575.24Z"/></svg>