<svg id="Layer_1" data-name="Layer 1" xmlns="http://www.w3.org/2000/svg" viewBox="0 0 1081 1081"><defs><style>.cls-1{fill:#fff;}.cls-2{fill:#231f20;}.cls-3{fill:#8976eb;fill-rule:evenodd;}</style></defs><rect class="cls-1" x="0.5" y="0.5" width="1080" height="1080"/><path class="cls-2" d="M1081,1081H0V0H1081ZM1,1080H1080V1H1Z"/><path class="cls-3" d="M776.17,700.32c-10.74-11.51-62.8-67.41-73.14-76.21-10.26-9.07-18.22-14.38-31.89-4.76s-50,29.17-60.71,34.78c-11,5.77-18.9,3.92-29.64-7.61-10.48-11.43-47.46-41-80.35-104.4-25.58-48.9-35.82-101.36-38.35-117.18s6.88-20.23,15.83-24.23c8.26-3.69,18.78-10.25,28.35-15.15,2.62-1.58,4.86-3,7.12-4.42a155,155,0,0,0,14.13-12.33c7.82-7,8.44-15.33,7.68-23s-2.56-81.53-3.62-111.64c-.82-30-13.49-29.71-21.22-32.67-7.48-2.86-15.73-7.43-24.44-10.76s-24.18-5.52-41.09,2.85-62.56,26.94-86.94,90.75c-5.71,14.95-8.67,30.95-10.13,46.69-4.21,50.65,9.82,99.14,12.33,107.53,3.23,10.94,35.36,178,148.05,280.78,113.11,102.35,119.69,85.14,144.48,92.05,24.68,7.14,89.18-1.63,111.5-28,22.5-26,32.4-51.88,31.25-58.6C794.13,718.33,786.63,711.75,776.17,700.32Z"/></svg>